<svg id="Слой_1" data-name="Слой 1" xmlns="http://www.w3.org/2000/svg" viewBox="0 0 1920 1080"><defs><style>.cls-1{fill:#28201e;}.cls-2{fill:#555557;}.cls-3{fill:#c4cdd0;}.cls-4{fill:#fff;}.cls-5{fill:#2a2a2a;}.cls-6{fill:#474944;}.cls-7{fill:none;stroke:#fff;stroke-linecap:round;stroke-miterlimit:10;stroke-width:1.17px;}</style></defs><polygon class="cls-1" points="834 523.56 834 549.7 817.33 549.7 834 523.56"/><polygon class="cls-1" points="937.12 549.7 920.45 549.7 937.12 523.56 937.12 549.7"/><path class="cls-1" d="M867.45,554.79V524.65c.39-6.27,5.47-11.74,11.74-11.74s11.35,5.47,11.74,11.74v30.14c-.39,6.27-5.47,11.74-11.74,11.74S867.84,561.06,867.45,554.79Z"/><path class="cls-1" d="M1364.76,881.15,1322.85,937,1221,845l-35.66,44.35L1105.5,814.5l-6.16,6.62L804.64,557.53H834V572.8h9V557.53h9V549.7h-9V506.64l16.14,14.44q-.21.78-.36,1.59a20,20,0,0,0-.34,3.74v27A20.55,20.55,0,0,0,879,574a21.15,21.15,0,0,0,20.94-20.55v-27a21.42,21.42,0,0,0-4.87-12.89,2.62,2.62,0,0,0-.22-.25l24.56,21.25-11.64,18.33v4.68h29.35V572.8h9V557.53h9V549.7h-9V506.64Z"/><polygon class="cls-2" points="1820.29 922.24 1769 972 1668 866 1601 958 1582 949.96 1720.5 798.5 1820.29 922.24"/><path class="cls-1" d="M867.45,554.79V524.65c.39-6.27,5.47-11.74,11.74-11.74s11.35,5.47,11.74,11.74v30.14c-.39,6.27-5.47,11.74-11.74,11.74S867.84,561.06,867.45,554.79Z"/><path class="cls-3" d="M407.28,202.1A93,93,0,1,1,295.72,56.9,93,93,0,0,0,407.28,202.1Z"/><polygon class="cls-2" points="226.2 951.26 213 963 114 892 0 941 116.5 861.5 226.2 951.26"/><path class="cls-4" d="M843,549.7V506.64h-9L806.65,549.7l-2,3.15v4.68H834V572.8h9V557.53h9V549.7Zm-9-26.14V549.7H817.33Z"/><path class="cls-4" d="M946.13,549.7V506.64h-9l-17.71,27.88-11.64,18.33v4.68h29.35V572.8h9V557.53h9V549.7Zm-9,0H920.45l16.67-26.14Z"/><polyline class="cls-2" points="1390.46 897.59 1335 948 1322.85 937.03 1364.76 881.15 1390.46 897.59"/><polygon class="cls-5" points="1920 939 1920 1080 0 1080 0 941 114 892 213 963 226.2 951.26 358 834 430.73 864.25 596 933 683 823 760.98 900.98 802 942 818.23 929.26 909 858 1023.63 902.36 1139 947 1181.28 894.41 1221 845 1322.85 937.03 1335 948 1412 878 1601 958 1668 866 1769 972 1836 907 1920 939"/><circle class="cls-6" cx="254.5" cy="429.5" r="9"/><circle class="cls-6" cx="409.5" cy="336.5" r="9"/><circle class="cls-6" cx="456.5" cy="740.5" r="6"/><circle class="cls-6" cx="1474.5" cy="437.5" r="6"/><circle class="cls-6" cx="1660.5" cy="320.5" r="14"/><circle class="cls-6" cx="1440.5" cy="161.5" r="6"/><circle class="cls-6" cx="1133.5" cy="178.5" r="12"/><circle class="cls-6" cx="1261.5" cy="97.5" r="6"/><circle class="cls-6" cx="1022.5" cy="115.5" r="12"/><circle class="cls-6" cx="826.5" cy="272.5" r="6"/><circle class="cls-6" cx="714.5" cy="137.5" r="6"/><circle class="cls-6" cx="810.5" cy="670.5" r="16"/><polygon class="cls-2" points="596 933 430.73 864.25 491.5 798.5 596 933"/><path class="cls-2" d="M818.23,929.26,802,942l-41-41c2.24-2.54,10.52-12.48,10.52-12.48Z"/><polygon class="cls-2" points="1185.5 889.5 1139 947 1023.63 902.36 1099.34 821.12 1105.5 814.5 1185.34 889.35 1185.5 889.5"/><line class="cls-7" x1="970.79" y1="467.5" x2="970.79" y2="604.89"/><path class="cls-4" d="M895.07,513.52a2.62,2.62,0,0,0-.22-.25,20.59,20.59,0,0,0-35.7,7.81q-.21.78-.36,1.59a20,20,0,0,0-.34,3.74v27A20.55,20.55,0,0,0,879,574a21.15,21.15,0,0,0,20.94-20.55v-27A21.42,21.42,0,0,0,895.07,513.52Zm-4.14,41.27c-.39,6.27-5.47,11.74-11.74,11.74s-11.35-5.47-11.74-11.74V524.65c.39-6.27,5.47-11.74,11.74-11.74s11.35,5.47,11.74,11.74Z"/><path class="cls-4" d="M987.26,509.17a7.53,7.53,0,0,1-2.8-.49,5.49,5.49,0,0,1-1.85-1.15,1.85,1.85,0,0,1-.66-1.19,1.16,1.16,0,0,1,.14-.52,1.7,1.7,0,0,1,.35-.45.69.69,0,0,1,.44-.19.83.83,0,0,1,.59.3c.19.2.43.44.73.72a3.9,3.9,0,0,0,1.14.71,4.64,4.64,0,0,0,1.82.3,4.43,4.43,0,0,0,1.83-.34,2.6,2.6,0,0,0,1.22-1,3.21,3.21,0,0,0,.44-1.74,3.13,3.13,0,0,0-.45-1.76,3.76,3.76,0,0,0-1.19-1.12,11,11,0,0,0-1.61-.81l-1.75-.71a7.49,7.49,0,0,1-1.62-.9,4.08,4.08,0,0,1-1.17-1.39,4.49,4.49,0,0,1-.46-2.16,4.58,4.58,0,0,1,.51-2.28,3.84,3.84,0,0,1,1.32-1.42,5.31,5.31,0,0,1,1.79-.74,8.4,8.4,0,0,1,1.9-.22,12,12,0,0,1,1.42.1,10.32,10.32,0,0,1,1.43.3,3.63,3.63,0,0,1,1.1.52.89.89,0,0,1,.43.74,1.28,1.28,0,0,1-.1.46,1.61,1.61,0,0,1-.3.48.66.66,0,0,1-.5.21,1.39,1.39,0,0,1-.68-.24,5.7,5.7,0,0,0-1.06-.47,5.28,5.28,0,0,0-1.74-.24,5.5,5.5,0,0,0-1.7.25,2.54,2.54,0,0,0-1.25.82,2.38,2.38,0,0,0-.46,1.53,2.33,2.33,0,0,0,.45,1.48,3.51,3.51,0,0,0,1.18.95,13.26,13.26,0,0,0,1.6.69,17.52,17.52,0,0,1,1.75.73,7.47,7.47,0,0,1,1.62,1,4.42,4.42,0,0,1,1.19,1.57,5.71,5.71,0,0,1,.45,2.42,5.62,5.62,0,0,1-.71,3,4.38,4.38,0,0,1-1.94,1.73A6.7,6.7,0,0,1,987.26,509.17Z"/><path class="cls-4" d="M1001.44,509.12a6.7,6.7,0,0,1-2.74-.54,4.24,4.24,0,0,1-1.93-1.73,6.23,6.23,0,0,1-.71-3.19v-7.55a6.23,6.23,0,0,1,.71-3.19,4.24,4.24,0,0,1,1.93-1.73,6.7,6.7,0,0,1,2.74-.54,6.8,6.8,0,0,1,2.76.54,4.17,4.17,0,0,1,1.94,1.73,6.13,6.13,0,0,1,.72,3.19v7.55a6.13,6.13,0,0,1-.72,3.19,4.17,4.17,0,0,1-1.94,1.73A6.8,6.8,0,0,1,1001.44,509.12Zm0-1.91a3.36,3.36,0,0,0,2.44-.86,3.67,3.67,0,0,0,.87-2.69v-7.55a3.67,3.67,0,0,0-.87-2.69,3.36,3.36,0,0,0-2.44-.86,3.27,3.27,0,0,0-2.41.86,3.67,3.67,0,0,0-.87,2.69v7.55a3.67,3.67,0,0,0,.87,2.69A3.27,3.27,0,0,0,1001.44,507.21Z"/><path class="cls-4" d="M1020.71,509a.76.76,0,0,1-.54-.25,2.43,2.43,0,0,1-.41-.58l-3.76-7.34h-2.91v7.36a.62.62,0,0,1-.32.57,1.5,1.5,0,0,1-.73.19,1.48,1.48,0,0,1-.71-.19.61.61,0,0,1-.34-.57V491.38a.66.66,0,0,1,.21-.5.89.89,0,0,1,.54-.23h4.59a8.09,8.09,0,0,1,2.79.47,4.08,4.08,0,0,1,2,1.55,5.13,5.13,0,0,1,.76,3,5.82,5.82,0,0,1-.49,2.53,3.9,3.9,0,0,1-1.34,1.57,5.48,5.48,0,0,1-1.91.79l3.71,7c0,.07.06.13.08.19a.88.88,0,0,1,0,.16.86.86,0,0,1-.19.53,1.41,1.41,0,0,1-.47.4A1.26,1.26,0,0,1,1020.71,509Zm-7.62-9.92h3.24a3.86,3.86,0,0,0,2.5-.76,3,3,0,0,0,.95-2.53,3,3,0,0,0-.95-2.51,3.91,3.91,0,0,0-2.5-.74h-3.24Z"/><path class="cls-4" d="M1035,509a.76.76,0,0,1-.54-.25,3.16,3.16,0,0,1-.41-.58l-3.76-7.34h-2.9v7.36a.61.61,0,0,1-.33.57,1.49,1.49,0,0,1-.72.19,1.52,1.52,0,0,1-.72-.19.62.62,0,0,1-.34-.57V491.38a.63.63,0,0,1,.22-.5.89.89,0,0,1,.54-.23h4.58a8,8,0,0,1,2.79.47,4.06,4.06,0,0,1,2,1.55,5.21,5.21,0,0,1,.75,3,5.68,5.68,0,0,1-.49,2.53,3.82,3.82,0,0,1-1.34,1.57,5.43,5.43,0,0,1-1.9.79l3.71,7c0,.07.05.13.07.19a.45.45,0,0,1,0,.16.93.93,0,0,1-.19.53,1.56,1.56,0,0,1-.48.4A1.26,1.26,0,0,1,1035,509Zm-7.61-9.92h3.23a3.84,3.84,0,0,0,2.5-.76,3,3,0,0,0,1-2.53,3,3,0,0,0-1-2.51,3.9,3.9,0,0,0-2.5-.74h-3.23Z"/><path class="cls-4" d="M1044.41,509a1.55,1.55,0,0,1-.72-.19.61.61,0,0,1-.33-.57v-6.33a.58.58,0,0,0,0-.25l-5.19-9.67-.08-.24a1.76,1.76,0,0,1,0-.19.62.62,0,0,1,.2-.45,1.37,1.37,0,0,1,.49-.31,1.45,1.45,0,0,1,.56-.12.66.66,0,0,1,.44.14,1.41,1.41,0,0,1,.31.41l4.39,8.6,4.41-8.6a1.43,1.43,0,0,1,.32-.41.69.69,0,0,1,.43-.14,1.45,1.45,0,0,1,.56.12,1.37,1.37,0,0,1,.49.31.62.62,0,0,1,.2.45,1.76,1.76,0,0,1,0,.19l-.08.24-5.18,9.67a.34.34,0,0,0-.08.25v6.33a.61.61,0,0,1-.33.57A1.46,1.46,0,0,1,1044.41,509Z"/><path class="cls-4" d="M1060.34,509.12a1.28,1.28,0,0,1-.95-.4,1.31,1.31,0,0,1-.38-.91,1.32,1.32,0,0,1,.38-.94,1.3,1.3,0,0,1,.95-.38,1.26,1.26,0,0,1,.89.38,1.29,1.29,0,0,1,.39.94,1.27,1.27,0,0,1-.39.91A1.24,1.24,0,0,1,1060.34,509.12Zm0-4.54a1,1,0,0,1-.58-.17.58.58,0,0,1-.25-.5c0-1.31,0-2.67-.08-4.09l-.15-4.27c0-1.43-.07-2.78-.07-4.07a1,1,0,0,1,.32-.8,1.28,1.28,0,0,1,1.6,0,1,1,0,0,1,.33.8c0,1.29,0,2.64-.07,4.07s-.11,2.85-.16,4.27-.09,2.78-.09,4.09a.56.56,0,0,1-.28.5A1,1,0,0,1,1060.32,504.58Z"/><path class="cls-4" d="M985.59,566.22a.63.63,0,0,1-.33-.09.27.27,0,0,1-.14-.25v-7.07h-1.84a.28.28,0,0,1-.24-.14.57.57,0,0,1-.09-.32.6.6,0,0,1,.08-.29.26.26,0,0,1,.25-.14h4.63a.27.27,0,0,1,.25.14.6.6,0,0,1,.08.29.65.65,0,0,1-.08.31.26.26,0,0,1-.25.15h-1.84v7.07a.26.26,0,0,1-.15.25A.63.63,0,0,1,985.59,566.22Z"/><path class="cls-4" d="M989.86,566.22a.5.5,0,0,1-.33-.11.29.29,0,0,1-.13-.23v-8a.27.27,0,0,1,.13-.24.56.56,0,0,1,.33-.09.64.64,0,0,1,.34.09.28.28,0,0,1,.14.24v3.71a1.7,1.7,0,0,1,.55-.59,1.52,1.52,0,0,1,.92-.27,1.76,1.76,0,0,1,1,.3,2.13,2.13,0,0,1,.73.79,2.2,2.2,0,0,1,.27,1.09v2.93a.27.27,0,0,1-.14.25.63.63,0,0,1-.33.09.59.59,0,0,1-.32-.09.26.26,0,0,1-.15-.25V563a1.27,1.27,0,0,0-.18-.64,1.6,1.6,0,0,0-.47-.5,1.14,1.14,0,0,0-.64-.19,1.12,1.12,0,0,0-.59.17,1.27,1.27,0,0,0-.47.45,1.31,1.31,0,0,0-.18.71v2.93a.31.31,0,0,1-.14.23A.58.58,0,0,1,989.86,566.22Z"/><path class="cls-4" d="M997.76,566.31a2.83,2.83,0,0,1-1.3-.28,2.19,2.19,0,0,1-.9-.77,2,2,0,0,1-.33-1.15v-1.2a1.9,1.9,0,0,1,.31-1.06,2.42,2.42,0,0,1,.83-.79,2.25,2.25,0,0,1,1.12-.29,2.22,2.22,0,0,1,1.88,1,2,2,0,0,1,.3,1.08,1.09,1.09,0,0,1-.15.65.6.6,0,0,1-.37.24,2.44,2.44,0,0,1-.48,0h-2.5v.34a1.23,1.23,0,0,0,.46,1,1.82,1.82,0,0,0,1.17.36,1.59,1.59,0,0,0,.67-.11c.16-.08.3-.15.41-.22a.53.53,0,0,1,.28-.11.32.32,0,0,1,.21.08.37.37,0,0,1,.13.17.45.45,0,0,1,0,.18.52.52,0,0,1-.21.34,2.08,2.08,0,0,1-.62.33A3,3,0,0,1,997.76,566.31Zm-1.59-3.15h2.1a.76.76,0,0,0,.41-.07.37.37,0,0,0,.09-.29,1.23,1.23,0,0,0-.16-.63,1.38,1.38,0,0,0-.46-.47,1.27,1.27,0,0,0-.67-.18,1.31,1.31,0,0,0-.65.16,1.38,1.38,0,0,0-.48.45,1.16,1.16,0,0,0-.18.63Z"/><path class="cls-4" d="M1004.28,566.22a.62.62,0,0,1-.32-.09.26.26,0,0,1-.16-.25v-7.63a.3.3,0,0,1,.11-.23.47.47,0,0,1,.28-.1h2.14a3,3,0,0,1,1.23.24,2,2,0,0,1,.86.78,2.8,2.8,0,0,1,.32,1.43v.1a2.84,2.84,0,0,1-.32,1.44,1.9,1.9,0,0,1-.88.78,3,3,0,0,1-1.25.25h-1.53v2.94a.26.26,0,0,1-.15.25A.63.63,0,0,1,1004.28,566.22Zm.48-4.08h1.53a1.51,1.51,0,0,0,1.1-.39,1.69,1.69,0,0,0,.4-1.22v-.14a1.69,1.69,0,0,0-.4-1.22,1.51,1.51,0,0,0-1.1-.39h-1.53Z"/><path class="cls-4" d="M1011.06,566.31a1.64,1.64,0,0,1-1.09-.37,1.4,1.4,0,0,1-.45-1.14,1.35,1.35,0,0,1,.34-1,1.87,1.87,0,0,1,.94-.48,6.35,6.35,0,0,1,1.38-.13h.54V563a1.88,1.88,0,0,0-.12-.66,1.12,1.12,0,0,0-1.12-.75,2.05,2.05,0,0,0-.63.08,1.87,1.87,0,0,0-.37.17.43.43,0,0,1-.24.08.28.28,0,0,1-.26-.16.64.64,0,0,1-.09-.31c0-.12.08-.23.25-.33a2.11,2.11,0,0,1,.62-.24,3.18,3.18,0,0,1,.74-.09,2.27,2.27,0,0,1,1.27.32,1.8,1.8,0,0,1,.69.81,2.76,2.76,0,0,1,.21,1.07v2.91a.33.33,0,0,1-.13.24.6.6,0,0,1-.34.1.49.49,0,0,1-.3-.1.3.3,0,0,1-.13-.24v-.46a3.9,3.9,0,0,1-.71.62A1.82,1.82,0,0,1,1011.06,566.31Zm.29-.76a1.27,1.27,0,0,0,.64-.18,1.66,1.66,0,0,0,.52-.46.79.79,0,0,0,.21-.52v-.59h-.39a6.37,6.37,0,0,0-.9.06,1.44,1.44,0,0,0-.69.24.67.67,0,0,0-.26.6.76.76,0,0,0,.25.64A.91.91,0,0,0,1011.35,565.55Z"/><path class="cls-4" d="M1017.25,568.82a3.77,3.77,0,0,1-1.2-.19,1.87,1.87,0,0,1-.84-.53,1.17,1.17,0,0,1-.32-.82,1.12,1.12,0,0,1,.28-.77,1.9,1.9,0,0,1,.64-.46,1,1,0,0,1-.41-.27.69.69,0,0,1-.17-.49.82.82,0,0,1,.16-.51,1.74,1.74,0,0,1,.41-.33,2,2,0,0,1-.48-.62,2,2,0,0,1-.17-.81v-.38a1.92,1.92,0,0,1,.25-1,1.81,1.81,0,0,1,.71-.66,2.32,2.32,0,0,1,1.08-.24,2.19,2.19,0,0,1,.73.12,2,2,0,0,1,.58.32,1.81,1.81,0,0,1,.38-.55.57.57,0,0,1,.39-.19.39.39,0,0,1,.31.12.33.33,0,0,1,.1.24.25.25,0,0,1,0,.15.49.49,0,0,1-.14.11,1,1,0,0,0-.29.13,1,1,0,0,0-.31.34,1.47,1.47,0,0,1,.25.5,1.85,1.85,0,0,1,.09.58V563a1.87,1.87,0,0,1-.26,1,1.91,1.91,0,0,1-.73.68,2.28,2.28,0,0,1-1.07.24,1.94,1.94,0,0,1-.82-.17l-.21.15a.32.32,0,0,0-.09.24.36.36,0,0,0,.26.34,2.44,2.44,0,0,0,.65.14l.84.11a4,4,0,0,1,.84.2,1.55,1.55,0,0,1,.65.43,1.22,1.22,0,0,1,.26.82,1.4,1.4,0,0,1-.31.92,1.88,1.88,0,0,1-.82.56A3.55,3.55,0,0,1,1017.25,568.82Zm0-.66a1.71,1.71,0,0,0,1-.27.83.83,0,0,0,.38-.71.63.63,0,0,0-.2-.49,1,1,0,0,0-.5-.26,3.16,3.16,0,0,0-.64-.12c-.22,0-.42,0-.6-.06a1.73,1.73,0,0,0-.63.34.74.74,0,0,0-.27.59.81.81,0,0,0,.4.71A1.8,1.8,0,0,0,1017.23,568.16Zm0-3.91a1,1,0,0,0,.81-.35,1.3,1.3,0,0,0,.3-.88v-.38a1.28,1.28,0,0,0-.3-.87,1,1,0,0,0-.82-.35,1,1,0,0,0-.83.35,1.32,1.32,0,0,0-.29.87V563a1.35,1.35,0,0,0,.3.89A1,1,0,0,0,1017.2,564.25Z"/><path class="cls-4" d="M1023.15,566.31a2.87,2.87,0,0,1-1.31-.28,2.19,2.19,0,0,1-.9-.77,2,2,0,0,1-.33-1.15v-1.2a1.91,1.91,0,0,1,.32-1.06,2.3,2.3,0,0,1,.82-.79,2.32,2.32,0,0,1,2.21,0,2.16,2.16,0,0,1,.79.74,2,2,0,0,1,.3,1.08,1.09,1.09,0,0,1-.15.65.58.58,0,0,1-.37.24,2.44,2.44,0,0,1-.48,0h-2.49v.34a1.25,1.25,0,0,0,.45,1,1.82,1.82,0,0,0,1.17.36,1.59,1.59,0,0,0,.67-.11,3.66,3.66,0,0,0,.41-.22.53.53,0,0,1,.28-.11.3.3,0,0,1,.21.08.37.37,0,0,1,.13.17.49.49,0,0,1,0,.18c0,.1-.07.21-.22.34a2.08,2.08,0,0,1-.62.33A3,3,0,0,1,1023.15,566.31Zm-1.59-3.15h2.1a.72.72,0,0,0,.4-.07.37.37,0,0,0,.1-.29,1.24,1.24,0,0,0-.17-.63,1.29,1.29,0,0,0-.46-.47,1.27,1.27,0,0,0-.67-.18,1.33,1.33,0,0,0-.65.16,1.35,1.35,0,0,0-.47.45,1.16,1.16,0,0,0-.18.63Z"/><path class="cls-4" d="M1031.44,566.22a.62.62,0,0,1-.32-.09.26.26,0,0,1-.15-.25V563a.21.21,0,0,0,0-.12l-2.35-4.38,0-.11a.25.25,0,0,1,0-.08.29.29,0,0,1,.09-.21.55.55,0,0,1,.22-.14.8.8,0,0,1,.26-.05.32.32,0,0,1,.2.06,1.17,1.17,0,0,1,.14.19l2,3.89,2-3.89a.79.79,0,0,1,.15-.19.31.31,0,0,1,.19-.06.8.8,0,0,1,.26.05.55.55,0,0,1,.22.14.29.29,0,0,1,.09.21.25.25,0,0,1,0,.08.49.49,0,0,1,0,.11l-2.34,4.38a.16.16,0,0,0,0,.12v2.87a.26.26,0,0,1-.15.25A.63.63,0,0,1,1031.44,566.22Z"/><path class="cls-4" d="M1036.45,566.31a2.07,2.07,0,0,1-1.11-.31,2.27,2.27,0,0,1-.82-.81,2,2,0,0,1-.31-1.08V563a2,2,0,0,1,.3-1.07,2.25,2.25,0,0,1,.82-.8,2.08,2.08,0,0,1,1.12-.31,2.24,2.24,0,0,1,1.11.29,2.3,2.3,0,0,1,.82.79,2,2,0,0,1,.32,1.1v1.16a2,2,0,0,1-.32,1.07,2.38,2.38,0,0,1-.82.82A2.16,2.16,0,0,1,1036.45,566.31Zm0-.85a1.19,1.19,0,0,0,.66-.2,1.41,1.41,0,0,0,.47-.5,1.29,1.29,0,0,0,.17-.65V563a1.2,1.2,0,0,0-.17-.64,1.6,1.6,0,0,0-.47-.5,1.18,1.18,0,0,0-.66-.19,1.13,1.13,0,0,0-.65.19,1.5,1.5,0,0,0-.47.5,1.21,1.21,0,0,0-.18.64v1.16a1.3,1.3,0,0,0,.18.65,1.26,1.26,0,0,0,.47.5A1.16,1.16,0,0,0,1036.45,565.46Z"/><path class="cls-4" d="M1042.38,566.31a2.12,2.12,0,0,1-1.14-.31,2.41,2.41,0,0,1-.82-.8,2.06,2.06,0,0,1-.3-1.07v-3a.3.3,0,0,1,.14-.24.59.59,0,0,1,.66,0,.32.32,0,0,1,.14.24v3a1.3,1.3,0,0,0,.17.64,1.41,1.41,0,0,0,.48.49,1.17,1.17,0,0,0,1.31,0,1.38,1.38,0,0,0,.47-.49,1.3,1.3,0,0,0,.17-.64v-3a.3.3,0,0,1,.15-.24.57.57,0,0,1,.32-.09.55.55,0,0,1,.34.09.3.3,0,0,1,.13.24v3a2,2,0,0,1-.3,1.07,2.3,2.3,0,0,1-.81.8A2.07,2.07,0,0,1,1042.38,566.31Z"/><path class="cls-4" d="M1047.13,559.59l-.05,0-.07,0-1.29-.66a.29.29,0,0,1-.15-.27.39.39,0,0,1,.09-.26.26.26,0,0,1,.22-.12.25.25,0,0,1,.12,0l1.33.7a.26.26,0,0,1,.14.25.43.43,0,0,1-.09.26A.3.3,0,0,1,1047.13,559.59Z"/><path class="cls-4" d="M1048.94,566.22a.52.52,0,0,1-.33-.11.32.32,0,0,1-.13-.23v-4.71a.29.29,0,0,1,.13-.24.58.58,0,0,1,.33-.09.52.52,0,0,1,.31.09.27.27,0,0,1,.13.24v.53a1.8,1.8,0,0,1,.84-.79,1.41,1.41,0,0,1,.65-.14h.38a.34.34,0,0,1,.26.12.49.49,0,0,1,.11.31.48.48,0,0,1-.11.3.34.34,0,0,1-.26.12h-.38a1.35,1.35,0,0,0-.7.2,1.59,1.59,0,0,0-.54.58,1.75,1.75,0,0,0-.21.89v2.59a.28.28,0,0,1-.14.23A.55.55,0,0,1,1048.94,566.22Z"/><path class="cls-4" d="M1054.83,566.31a2.87,2.87,0,0,1-1.31-.28,2.1,2.1,0,0,1-.89-.77,2,2,0,0,1-.33-1.15v-1.2a1.9,1.9,0,0,1,.31-1.06,2.39,2.39,0,0,1,.82-.79,2.28,2.28,0,0,1,1.12-.29,2.23,2.23,0,0,1,1.09.27,2.16,2.16,0,0,1,.79.74,2,2,0,0,1,.3,1.08,1.18,1.18,0,0,1-.14.65.63.63,0,0,1-.38.24,2.42,2.42,0,0,1-.47,0h-2.5v.34a1.25,1.25,0,0,0,.45,1,1.82,1.82,0,0,0,1.17.36,1.59,1.59,0,0,0,.67-.11,3.66,3.66,0,0,0,.41-.22.53.53,0,0,1,.28-.11.29.29,0,0,1,.21.08.37.37,0,0,1,.13.17.49.49,0,0,1,0,.18c0,.1-.07.21-.22.34a2.08,2.08,0,0,1-.62.33A2.91,2.91,0,0,1,1054.83,566.31Zm-1.59-3.15h2.1a.72.72,0,0,0,.4-.07.37.37,0,0,0,.1-.29,1.24,1.24,0,0,0-.17-.63,1.29,1.29,0,0,0-.46-.47,1.24,1.24,0,0,0-.67-.18,1.27,1.27,0,0,0-.64.16,1.3,1.3,0,0,0-.48.45,1.16,1.16,0,0,0-.18.63Z"/><path class="cls-4" d="M1061.3,566.22a.53.53,0,0,1-.3-.09.27.27,0,0,1-.13-.25v-7.63a.26.26,0,0,1,.15-.25.72.72,0,0,1,.32-.08.73.73,0,0,1,.33.08.26.26,0,0,1,.15.25v7.1h3.11a.24.24,0,0,1,.23.14.56.56,0,0,1,.08.3.6.6,0,0,1-.08.29.24.24,0,0,1-.23.14Z"/><path class="cls-4" d="M1068.23,566.31a2.07,2.07,0,0,1-1.11-.31,2.35,2.35,0,0,1-.82-.81,2.1,2.1,0,0,1-.3-1.08V563a2,2,0,0,1,.3-1.07,2.3,2.3,0,0,1,.81-.8,2.1,2.1,0,0,1,1.12-.31,2.28,2.28,0,0,1,1.12.29,2.39,2.39,0,0,1,.82.79,2,2,0,0,1,.31,1.1v1.16a2,2,0,0,1-.31,1.07,2.47,2.47,0,0,1-.82.82A2.2,2.2,0,0,1,1068.23,566.31Zm0-.85a1.14,1.14,0,0,0,.66-.2,1.26,1.26,0,0,0,.47-.5,1.3,1.3,0,0,0,.18-.65V563a1.21,1.21,0,0,0-.18-.64,1.4,1.4,0,0,0-.47-.5,1.22,1.22,0,0,0-1.31,0,1.47,1.47,0,0,0-.46.5,1.21,1.21,0,0,0-.18.64v1.16a1.4,1.4,0,0,0,.17.65,1.26,1.26,0,0,0,.47.5A1.18,1.18,0,0,0,1068.23,565.46Z"/><path class="cls-4" d="M1074,566.31a2.07,2.07,0,0,1-1.11-.31,2.27,2.27,0,0,1-.82-.81,2.11,2.11,0,0,1-.31-1.08V563a2,2,0,0,1,.3-1.07,2.33,2.33,0,0,1,.82-.8,2.08,2.08,0,0,1,1.12-.31,2.24,2.24,0,0,1,1.11.29,2.3,2.3,0,0,1,.82.79,2,2,0,0,1,.32,1.1v1.16a2,2,0,0,1-.32,1.07,2.38,2.38,0,0,1-.82.82A2.16,2.16,0,0,1,1074,566.31Zm0-.85a1.19,1.19,0,0,0,.66-.2,1.41,1.41,0,0,0,.47-.5,1.29,1.29,0,0,0,.17-.65V563a1.2,1.2,0,0,0-.17-.64,1.6,1.6,0,0,0-.47-.5,1.18,1.18,0,0,0-.66-.19,1.13,1.13,0,0,0-.65.19,1.5,1.5,0,0,0-.47.5,1.2,1.2,0,0,0-.17.64v1.16a1.29,1.29,0,0,0,.17.65,1.26,1.26,0,0,0,.47.5A1.16,1.16,0,0,0,1074,565.46Z"/><path class="cls-4" d="M1078.18,566.22a.48.48,0,0,1-.32-.11.31.31,0,0,1-.14-.23v-8a.28.28,0,0,1,.14-.24.53.53,0,0,1,.32-.09.65.65,0,0,1,.35.09.28.28,0,0,1,.14.24v5.31l2.59-2.34a.32.32,0,0,1,.2-.08.44.44,0,0,1,.22.07.55.55,0,0,1,.18.16.37.37,0,0,1,.08.22.35.35,0,0,1,0,.12.19.19,0,0,1-.08.1l-1.57,1.4,1.88,2.74a.27.27,0,0,1,.06.17.4.4,0,0,1-.08.22.61.61,0,0,1-.2.19.53.53,0,0,1-.24.06.33.33,0,0,1-.27-.14l-1.8-2.65-.94.84v1.57a.31.31,0,0,1-.14.23A.58.58,0,0,1,1078.18,566.22Z"/><path class="cls-4" d="M1083.81,559.36a.57.57,0,0,1-.42-.16.53.53,0,0,1-.17-.38.52.52,0,0,1,.17-.38.61.61,0,0,1,.42-.16.62.62,0,0,1,.41.16.52.52,0,0,1,.17.38.53.53,0,0,1-.17.38A.57.57,0,0,1,1083.81,559.36Zm0,6.86a.53.53,0,0,1-.34-.11.32.32,0,0,1-.13-.23v-4.71a.29.29,0,0,1,.13-.24.59.59,0,0,1,.34-.09.58.58,0,0,1,.33.09.27.27,0,0,1,.15.24v4.71a.29.29,0,0,1-.15.23A.52.52,0,0,1,1083.81,566.22Z"/><path class="cls-4" d="M1086.42,566.22a.53.53,0,0,1-.34-.11.31.31,0,0,1-.12-.23v-4.71a.29.29,0,0,1,.12-.24.59.59,0,0,1,.34-.09.54.54,0,0,1,.31.09.29.29,0,0,1,.12.24v.46a1.68,1.68,0,0,1,.57-.59,1.61,1.61,0,0,1,.95-.27,1.76,1.76,0,0,1,1,.3,2.21,2.21,0,0,1,1,1.88v2.93a.26.26,0,0,1-.15.25.6.6,0,0,1-.33.09.56.56,0,0,1-.31-.09.26.26,0,0,1-.15-.25V563a1.27,1.27,0,0,0-.18-.64,1.5,1.5,0,0,0-.47-.5,1.15,1.15,0,0,0-.65-.19,1.18,1.18,0,0,0-.59.17,1.24,1.24,0,0,0-.46.45,1.31,1.31,0,0,0-.18.71v2.93a.29.29,0,0,1-.15.23A.52.52,0,0,1,1086.42,566.22Z"/><path class="cls-4" d="M1094,568.82a3.79,3.79,0,0,1-1.21-.19,2,2,0,0,1-.84-.53,1.16,1.16,0,0,1-.31-.82,1.07,1.07,0,0,1,.28-.77,1.72,1.72,0,0,1,.64-.46,1,1,0,0,1-.42-.27.69.69,0,0,1-.16-.49.76.76,0,0,1,.16-.51,1.68,1.68,0,0,1,.4-.33,1.79,1.79,0,0,1-.47-.62,1.84,1.84,0,0,1-.17-.81v-.38a1.82,1.82,0,0,1,.25-1,1.68,1.68,0,0,1,.71-.66,2.25,2.25,0,0,1,1.07-.24,2.15,2.15,0,0,1,.73.12,2.23,2.23,0,0,1,.59.32,1.65,1.65,0,0,1,.38-.55.55.55,0,0,1,.39-.19.4.4,0,0,1,.31.12.37.37,0,0,1,.1.24.2.2,0,0,1-.06.15.38.38,0,0,1-.14.11,1,1,0,0,0-.29.13,1,1,0,0,0-.31.34,1.49,1.49,0,0,1,.26.5,2.2,2.2,0,0,1,.08.58V563a1.78,1.78,0,0,1-.26,1,1.82,1.82,0,0,1-.72.68,2.34,2.34,0,0,1-1.07.24,2,2,0,0,1-.83-.17l-.2.15a.33.33,0,0,0-.1.24.36.36,0,0,0,.26.34,2.53,2.53,0,0,0,.65.14l.84.11a3.69,3.69,0,0,1,.84.2,1.52,1.52,0,0,1,.66.43,1.22,1.22,0,0,1,.25.82,1.35,1.35,0,0,1-.31.92,1.82,1.82,0,0,1-.82.56A3.49,3.49,0,0,1,1094,568.82Zm0-.66a1.71,1.71,0,0,0,1-.27.82.82,0,0,0,.37-.71.63.63,0,0,0-.19-.49,1.14,1.14,0,0,0-.5-.26,3.44,3.44,0,0,0-.64-.12c-.23,0-.43,0-.61-.06a1.91,1.91,0,0,0-.63.34.74.74,0,0,0-.27.59.83.83,0,0,0,.4.71A1.84,1.84,0,0,0,1093.94,568.16Zm0-3.91a1,1,0,0,0,.82-.35,1.3,1.3,0,0,0,.29-.88v-.38a1.27,1.27,0,0,0-.29-.87,1,1,0,0,0-.83-.35,1,1,0,0,0-.82.35,1.27,1.27,0,0,0-.29.87V563a1.4,1.4,0,0,0,.29.89A1,1,0,0,0,1093.9,564.25Z"/><path class="cls-4" d="M1100.77,566.22a.76.76,0,0,1-.33-.08.26.26,0,0,1-.15-.25v-7.63a.3.3,0,0,1,.14-.26.6.6,0,0,1,.29-.08h4a.27.27,0,0,1,.25.14.55.55,0,0,1,0,.59.25.25,0,0,1-.24.13h-3.48v2.89H1103a.29.29,0,0,1,.24.12.47.47,0,0,1,.09.28.53.53,0,0,1-.08.27.29.29,0,0,1-.25.12h-1.78v3.43a.26.26,0,0,1-.15.25A.73.73,0,0,1,1100.77,566.22Z"/><path class="cls-4" d="M1107,566.31a2.08,2.08,0,0,1-1.12-.31,2.25,2.25,0,0,1-.81-.81,2,2,0,0,1-.31-1.08V563a2,2,0,0,1,.3-1.07,2.3,2.3,0,0,1,.81-.8,2.11,2.11,0,0,1,1.13-.31,2.24,2.24,0,0,1,1.11.29,2.39,2.39,0,0,1,.82.79,2,2,0,0,1,.31,1.1v1.16a2,2,0,0,1-.31,1.07,2.47,2.47,0,0,1-.82.82A2.16,2.16,0,0,1,1107,566.31Zm0-.85a1.14,1.14,0,0,0,.65-.2,1.26,1.26,0,0,0,.47-.5,1.3,1.3,0,0,0,.18-.65V563a1.21,1.21,0,0,0-.18-.64,1.4,1.4,0,0,0-.47-.5,1.13,1.13,0,0,0-.65-.19,1.16,1.16,0,0,0-.66.19,1.47,1.47,0,0,0-.46.5,1.21,1.21,0,0,0-.18.64v1.16a1.4,1.4,0,0,0,.17.65,1.33,1.33,0,0,0,.47.5A1.19,1.19,0,0,0,1107,565.46Z"/><path class="cls-4" d="M1111.14,566.22a.5.5,0,0,1-.32-.11.29.29,0,0,1-.13-.23v-4.71a.27.27,0,0,1,.13-.24.55.55,0,0,1,.32-.09.53.53,0,0,1,.32.09.29.29,0,0,1,.13.24v.53a1.57,1.57,0,0,1,.34-.45,1.77,1.77,0,0,1,.5-.34,1.39,1.39,0,0,1,.64-.14h.39a.32.32,0,0,1,.25.12.44.44,0,0,1,.11.31.43.43,0,0,1-.11.3.32.32,0,0,1-.25.12h-.39a1.34,1.34,0,0,0-.69.2,1.59,1.59,0,0,0-.54.58,1.75,1.75,0,0,0-.21.89v2.59a.31.31,0,0,1-.14.23A.58.58,0,0,1,1111.14,566.22Z"/><path class="cls-4" d="M985.85,584.29a.77.77,0,0,1-.36-.09.41.41,0,0,1-.23-.24L983,576.41a.34.34,0,0,1,0-.1.25.25,0,0,1,.09-.2.55.55,0,0,1,.22-.14.74.74,0,0,1,.25-.05.64.64,0,0,1,.24.05.23.23,0,0,1,.13.17l1.91,6.74,1.08-4.16a.35.35,0,0,1,.19-.22.63.63,0,0,1,.3-.07.62.62,0,0,1,.31.07.3.3,0,0,1,.17.22l1.09,4.16,1.92-6.74A.23.23,0,0,1,991,576a.48.48,0,0,1,.22-.05.75.75,0,0,1,.26.05.59.59,0,0,1,.23.14.25.25,0,0,1,.09.2.19.19,0,0,1,0,.1L989.59,584a.45.45,0,0,1-.23.24.78.78,0,0,1-.37.09.81.81,0,0,1-.37-.09.35.35,0,0,1-.21-.24l-1-3.75-1,3.75a.43.43,0,0,1-.22.24A.79.79,0,0,1,985.85,584.29Z"/><path class="cls-4" d="M993.71,584.31a1.63,1.63,0,0,1-1.08-.37,1.4,1.4,0,0,1-.45-1.14,1.3,1.3,0,0,1,.34-1,1.87,1.87,0,0,1,.94-.48,6.19,6.19,0,0,1,1.37-.13h.55V581a1.69,1.69,0,0,0-.13-.66,1.12,1.12,0,0,0-1.12-.75,2.15,2.15,0,0,0-.63.08,2.19,2.19,0,0,0-.37.17.43.43,0,0,1-.24.08.28.28,0,0,1-.26-.16.64.64,0,0,1-.09-.31c0-.12.09-.23.25-.33a2.3,2.3,0,0,1,.63-.24,3.1,3.1,0,0,1,.73-.09,2.25,2.25,0,0,1,1.27.32,1.8,1.8,0,0,1,.69.81,2.76,2.76,0,0,1,.21,1.07v2.91a.3.3,0,0,1-.13.24.59.59,0,0,1-.33.1.52.52,0,0,1-.31-.1.33.33,0,0,1-.13-.24v-.46a3.33,3.33,0,0,1-.71.62A1.8,1.8,0,0,1,993.71,584.31Zm.3-.76a1.27,1.27,0,0,0,.64-.18,1.78,1.78,0,0,0,.52-.46.85.85,0,0,0,.21-.52v-.59H995a6.37,6.37,0,0,0-.9.06,1.53,1.53,0,0,0-.69.24.7.7,0,0,0-.26.6.76.76,0,0,0,.25.64A1,1,0,0,0,994,583.55Z"/><path class="cls-4" d="M999.49,584.31a3.2,3.2,0,0,1-1-.14,2.25,2.25,0,0,1-.66-.34.55.55,0,0,1-.23-.38.43.43,0,0,1,0-.19.52.52,0,0,1,.12-.17A.23.23,0,0,1,998,583a.48.48,0,0,1,.29.14,3,3,0,0,0,.43.26,1.81,1.81,0,0,0,.78.14,1.3,1.3,0,0,0,.85-.22.7.7,0,0,0,.23-.5.69.69,0,0,0-.2-.54,1.53,1.53,0,0,0-.52-.29l-.67-.21a3.58,3.58,0,0,1-.67-.26,1.28,1.28,0,0,1-.52-.43,1.25,1.25,0,0,1-.2-.74,1.54,1.54,0,0,1,.77-1.35,2.17,2.17,0,0,1,1.09-.24,3.87,3.87,0,0,1,.77.08,2.15,2.15,0,0,1,.6.23c.16.1.23.2.23.3a.45.45,0,0,1,0,.18.57.57,0,0,1-.13.21.25.25,0,0,1-.2.09.61.61,0,0,1-.26-.09,3.1,3.1,0,0,0-.39-.16,1.89,1.89,0,0,0-.56-.08,1.23,1.23,0,0,0-.61.13.8.8,0,0,0-.32.31.66.66,0,0,0-.11.35.56.56,0,0,0,.2.45,1.57,1.57,0,0,0,.52.25l.68.2a2.77,2.77,0,0,1,.67.27,1.49,1.49,0,0,1,.52.48,1.42,1.42,0,0,1,.21.82,1.35,1.35,0,0,1-.5,1.1A2.16,2.16,0,0,1,999.49,584.31Z"/><path class="cls-4" d="M1006,584.22a.62.62,0,0,1-.32-.09.26.26,0,0,1-.15-.25v-7.63a.27.27,0,0,1,.15-.26.71.71,0,0,1,.32-.07.59.59,0,0,1,.31.07.7.7,0,0,1,.23.2,2.84,2.84,0,0,1,.2.33l2.82,5.53v-5.8a.26.26,0,0,1,.15-.25.72.72,0,0,1,.32-.08.73.73,0,0,1,.33.08.26.26,0,0,1,.15.25v7.63a.26.26,0,0,1-.15.25.63.63,0,0,1-.33.09.48.48,0,0,1-.33-.13,1.08,1.08,0,0,1-.26-.3l-3-5.71v5.8a.26.26,0,0,1-.15.25A.63.63,0,0,1,1006,584.22Z"/><path class="cls-4" d="M1014.31,584.31a2.07,2.07,0,0,1-1.11-.31,2.35,2.35,0,0,1-.82-.81,2.1,2.1,0,0,1-.3-1.08V581a2,2,0,0,1,.3-1.07,2.3,2.3,0,0,1,.81-.8,2.08,2.08,0,0,1,1.12-.31,2.31,2.31,0,0,1,1.12.29,2.39,2.39,0,0,1,.82.79,2,2,0,0,1,.31,1.1v1.16a2,2,0,0,1-.31,1.07,2.47,2.47,0,0,1-.82.82A2.22,2.22,0,0,1,1014.31,584.31Zm0-.85a1.19,1.19,0,0,0,.66-.2,1.26,1.26,0,0,0,.47-.5,1.3,1.3,0,0,0,.18-.65V581a1.21,1.21,0,0,0-.18-.64,1.4,1.4,0,0,0-.47-.5,1.18,1.18,0,0,0-.66-.19,1.13,1.13,0,0,0-.65.19,1.47,1.47,0,0,0-.46.5,1.21,1.21,0,0,0-.18.64v1.16a1.4,1.4,0,0,0,.17.65,1.26,1.26,0,0,0,.47.5A1.18,1.18,0,0,0,1014.31,583.46Z"/><path class="cls-4" d="M1019.9,584.22a2.11,2.11,0,0,1-1.4-.41,1.6,1.6,0,0,1-.49-1.31v-5.84a.27.27,0,0,1,.15-.24.62.62,0,0,1,.32-.09.63.63,0,0,1,.33.09.27.27,0,0,1,.15.24v2.18h1.43a.25.25,0,0,1,.21.11.56.56,0,0,1,.07.26.53.53,0,0,1-.07.26.24.24,0,0,1-.21.1H1019v2.93a.92.92,0,0,0,.21.69,1.06,1.06,0,0,0,.73.2h.35a.39.39,0,0,1,.31.12.51.51,0,0,1,.1.29.53.53,0,0,1-.1.29.39.39,0,0,1-.31.13Z"/><path class="cls-4" d="M1025.11,584.22a.72.72,0,0,1-.32-.08.26.26,0,0,1-.16-.25v-7.63a.3.3,0,0,1,.14-.26.6.6,0,0,1,.29-.08h4a.27.27,0,0,1,.25.14.55.55,0,0,1,0,.59.25.25,0,0,1-.24.13h-3.48v2.89h1.78a.27.27,0,0,1,.24.12.47.47,0,0,1,.09.28.53.53,0,0,1-.08.27.29.29,0,0,1-.25.12h-1.78v3.43a.26.26,0,0,1-.15.25A.73.73,0,0,1,1025.11,584.22Z"/><path class="cls-4" d="M1031.31,584.31a2.13,2.13,0,0,1-1.12-.31,2.25,2.25,0,0,1-.81-.81,2,2,0,0,1-.31-1.08V581a2,2,0,0,1,.3-1.07,2.3,2.3,0,0,1,.81-.8,2.11,2.11,0,0,1,1.13-.31,2.24,2.24,0,0,1,1.11.29,2.39,2.39,0,0,1,.82.79,2,2,0,0,1,.31,1.1v1.16a2,2,0,0,1-.31,1.07,2.47,2.47,0,0,1-.82.82A2.16,2.16,0,0,1,1031.31,584.31Zm0-.85a1.19,1.19,0,0,0,.66-.2,1.38,1.38,0,0,0,.64-1.15V581a1.3,1.3,0,0,0-.17-.64,1.6,1.6,0,0,0-.47-.5,1.18,1.18,0,0,0-.66-.19,1.16,1.16,0,0,0-.66.19,1.57,1.57,0,0,0-.46.5,1.21,1.21,0,0,0-.18.64v1.16a1.4,1.4,0,0,0,.17.65,1.33,1.33,0,0,0,.47.5A1.19,1.19,0,0,0,1031.31,583.46Z"/><path class="cls-4" d="M1037.23,584.31a2.11,2.11,0,0,1-1.13-.31,2.33,2.33,0,0,1-.82-.8,2.07,2.07,0,0,1-.31-1.07v-3a.31.31,0,0,1,.15-.24.59.59,0,0,1,.66,0,.32.32,0,0,1,.14.24v3a1.2,1.2,0,0,0,.17.64,1.47,1.47,0,0,0,.47.49,1.19,1.19,0,0,0,1.32,0,1.27,1.27,0,0,0,.46-.49,1.2,1.2,0,0,0,.17-.64v-3a.3.3,0,0,1,.15-.24.63.63,0,0,1,.33-.09.55.55,0,0,1,.34.09.3.3,0,0,1,.13.24v3a2,2,0,0,1-.3,1.07,2.25,2.25,0,0,1-.82.8A2.07,2.07,0,0,1,1037.23,584.31Z"/><path class="cls-4" d="M1041.56,584.22a.53.53,0,0,1-.34-.11.32.32,0,0,1-.13-.23v-4.71a.29.29,0,0,1,.13-.24.59.59,0,0,1,.34-.09.49.49,0,0,1,.3.09.27.27,0,0,1,.13.24v.46a1.68,1.68,0,0,1,.57-.59,1.59,1.59,0,0,1,1-.27,1.78,1.78,0,0,1,1,.3,2.31,2.31,0,0,1,.73.79,2.2,2.2,0,0,1,.27,1.09v2.93a.26.26,0,0,1-.15.25.63.63,0,0,1-.33.09.62.62,0,0,1-.32-.09.27.27,0,0,1-.14-.25V581a1.27,1.27,0,0,0-.18-.64,1.5,1.5,0,0,0-.47-.5,1.15,1.15,0,0,0-.65-.19,1.18,1.18,0,0,0-.59.17,1.24,1.24,0,0,0-.46.45,1.31,1.31,0,0,0-.18.71v2.93a.29.29,0,0,1-.15.23A.52.52,0,0,1,1041.56,584.22Z"/><path class="cls-4" d="M1048.94,584.31a1.81,1.81,0,0,1-1-.31,2.31,2.31,0,0,1-.73-.82,2.17,2.17,0,0,1-.28-1.07V581a2.11,2.11,0,0,1,.28-1.09,2.22,2.22,0,0,1,.73-.79,1.84,1.84,0,0,1,1-.3,1.54,1.54,0,0,1,.92.27,1.68,1.68,0,0,1,.57.59v-3.71a.26.26,0,0,1,.14-.24.62.62,0,0,1,.34-.09.54.54,0,0,1,.33.09.27.27,0,0,1,.13.24v8a.29.29,0,0,1-.13.23.52.52,0,0,1-.64,0,.32.32,0,0,1-.13-.23v-.46a1.48,1.48,0,0,1-.6.62A1.78,1.78,0,0,1,1048.94,584.31Zm.22-.85a1.17,1.17,0,0,0,.66-.2,1.79,1.79,0,0,0,.46-.45.84.84,0,0,0,.17-.4V581a1.32,1.32,0,0,0-.19-.71,1.37,1.37,0,0,0-.48-.45,1.25,1.25,0,0,0-.61-.17,1.13,1.13,0,0,0-.65.19,1.4,1.4,0,0,0-.47.5,1.27,1.27,0,0,0-.18.64v1.16a1.27,1.27,0,0,0,.18.64,1.22,1.22,0,0,0,.47.51A1.13,1.13,0,0,0,1049.16,583.46Z"/></svg>