<svg id="Слой_1" data-name="Слой 1" xmlns="http://www.w3.org/2000/svg" viewBox="0 0 1920 1080"><defs><style>.cls-1{fill:#28201e;}.cls-2{fill:#555557;}.cls-3{fill:#c4cdd0;}.cls-4{fill:#2a2a2a;}.cls-5{fill:#474944;}.cls-6{fill:none;stroke:#fff;stroke-linecap:round;stroke-miterlimit:10;stroke-width:1.17px;}.cls-7{fill:#fff;}</style></defs><path class="cls-1" d="M921.53,562q-3.07-5.06-3.08-15.65v-13.3q.09-10,3-14.78t9.3-4.8q6.42,0,9.39,4.82t3,15.39v13.61q-.14,10.24-3.12,15t-9.14,4.76A10.19,10.19,0,0,1,921.53,562Z"/><path class="cls-1" d="M869.87,562q-3.07-5.06-3.08-15.65v-13.3q.09-10,3-14.78t9.3-4.8q6.42,0,9.39,4.82t3,15.39v13.61q-.13,10.24-3.12,15t-9.14,4.76A10.19,10.19,0,0,1,869.87,562Z"/><path class="cls-1" d="M1361.45,885.56,1322.85,937,1221,845l-35.66,44.35L1105.5,814.5l-6.16,6.62-1.14,1.22L817,570.74a21.82,21.82,0,0,0,12,3.14q9.79,0,15.25-5.82t5.46-15.92q0-10.07-5.26-16t-14.2-5.91a21,21,0,0,0-10.91,2.83l2-17.83h26.45v-4.39l12.13,10.85.09-.06a53.34,53.34,0,0,0-1.48,13.45v11.1q.18,13.78,5.21,20.73t15.5,6.94q10.6,0,15.59-7.1t5-21.69V534.3q-.13-14.1-5.12-20.86a15.19,15.19,0,0,0-4.08-3.84l.94-.1,19.19,16.89a63,63,0,0,0-.55,8.72v11.1q.18,13.78,5.21,20.73t15.5,6.94q10.6,0,15.59-7.1t5-21.69V534.3q-.13-14-5.07-20.79Z"/><polygon class="cls-2" points="1820.29 922.24 1769 972 1668 866 1601 958 1582 949.96 1720.5 798.5 1820.29 922.24"/><path class="cls-3" d="M407.28,202.1A93,93,0,1,1,295.72,56.9,93,93,0,0,0,407.28,202.1Z"/><polygon class="cls-2" points="226.2 951.26 213 963 114 892 0 941 116.5 861.5 226.2 951.26"/><polygon class="cls-2" points="1390.46 897.59 1335 948 1322.85 937.03 1361.45 885.56 1364.76 881.15 1390.46 897.59"/><polygon class="cls-4" points="1920 939 1920 1080 0 1080 0 941 114 892 213 963 226.2 951.26 358 834 430.73 864.25 596 933 683 823 760.98 900.98 802 942 818.23 929.26 909 858 1023.63 902.36 1139 947 1181.28 894.41 1221 845 1322.85 937.03 1335 948 1412 878 1601 958 1668 866 1769 972 1836 907 1920 939"/><circle class="cls-5" cx="254.5" cy="429.5" r="9"/><circle class="cls-5" cx="409.5" cy="336.5" r="9"/><circle class="cls-5" cx="456.5" cy="740.5" r="6"/><circle class="cls-5" cx="1474.5" cy="437.5" r="6"/><circle class="cls-5" cx="1660.5" cy="320.5" r="14"/><circle class="cls-5" cx="1440.5" cy="161.5" r="6"/><circle class="cls-5" cx="1133.5" cy="178.5" r="12"/><circle class="cls-5" cx="1261.5" cy="97.5" r="6"/><circle class="cls-5" cx="1022.5" cy="115.5" r="12"/><circle class="cls-5" cx="826.5" cy="272.5" r="6"/><circle class="cls-5" cx="714.5" cy="137.5" r="6"/><circle class="cls-5" cx="810.5" cy="670.5" r="16"/><polygon class="cls-2" points="596 933 430.73 864.25 491.5 798.5 596 933"/><path class="cls-2" d="M818.23,929.26,802,942l-41-41c2.24-2.54,10.52-12.48,10.52-12.48Z"/><polygon class="cls-2" points="1023.63 902.36 1139 947 1185.5 889.5 1185.34 889.35 1105.5 814.5 1023.63 902.36"/><line class="cls-6" x1="970.79" y1="467.5" x2="970.79" y2="604.89"/><path class="cls-7" d="M987.26,509.17a7.53,7.53,0,0,1-2.8-.49,5.49,5.49,0,0,1-1.85-1.15,1.85,1.85,0,0,1-.66-1.19,1.16,1.16,0,0,1,.14-.52,1.7,1.7,0,0,1,.35-.45.69.69,0,0,1,.44-.19.83.83,0,0,1,.59.3c.19.2.43.44.73.72a3.9,3.9,0,0,0,1.14.71,4.64,4.64,0,0,0,1.82.3,4.43,4.43,0,0,0,1.83-.34,2.6,2.6,0,0,0,1.22-1,3.21,3.21,0,0,0,.44-1.74,3.13,3.13,0,0,0-.45-1.76,3.76,3.76,0,0,0-1.19-1.12,11,11,0,0,0-1.61-.81l-1.75-.71a7.49,7.49,0,0,1-1.62-.9,4.08,4.08,0,0,1-1.17-1.39,4.49,4.49,0,0,1-.46-2.16,4.58,4.58,0,0,1,.51-2.28,3.84,3.84,0,0,1,1.32-1.42,5.31,5.31,0,0,1,1.79-.74,8.4,8.4,0,0,1,1.9-.22,12,12,0,0,1,1.42.1,10.32,10.32,0,0,1,1.43.3,3.63,3.63,0,0,1,1.1.52.89.89,0,0,1,.43.74,1.28,1.28,0,0,1-.1.46,1.61,1.61,0,0,1-.3.48.66.66,0,0,1-.5.21,1.39,1.39,0,0,1-.68-.24,5.7,5.7,0,0,0-1.06-.47,5.28,5.28,0,0,0-1.74-.24,5.5,5.5,0,0,0-1.7.25,2.54,2.54,0,0,0-1.25.82,2.38,2.38,0,0,0-.46,1.53,2.33,2.33,0,0,0,.45,1.48,3.51,3.51,0,0,0,1.18.95,13.26,13.26,0,0,0,1.6.69,17.52,17.52,0,0,1,1.75.73,7.47,7.47,0,0,1,1.62,1,4.42,4.42,0,0,1,1.19,1.57,5.71,5.71,0,0,1,.45,2.42,5.62,5.62,0,0,1-.71,3,4.38,4.38,0,0,1-1.94,1.73A6.7,6.7,0,0,1,987.26,509.17Z"/><path class="cls-7" d="M1001.44,509.12a6.7,6.7,0,0,1-2.74-.54,4.24,4.24,0,0,1-1.93-1.73,6.23,6.23,0,0,1-.71-3.19v-7.55a6.23,6.23,0,0,1,.71-3.19,4.24,4.24,0,0,1,1.93-1.73,6.7,6.7,0,0,1,2.74-.54,6.8,6.8,0,0,1,2.76.54,4.17,4.17,0,0,1,1.94,1.73,6.13,6.13,0,0,1,.72,3.19v7.55a6.13,6.13,0,0,1-.72,3.19,4.17,4.17,0,0,1-1.94,1.73A6.8,6.8,0,0,1,1001.44,509.12Zm0-1.91a3.36,3.36,0,0,0,2.44-.86,3.67,3.67,0,0,0,.87-2.69v-7.55a3.67,3.67,0,0,0-.87-2.69,3.36,3.36,0,0,0-2.44-.86,3.27,3.27,0,0,0-2.41.86,3.67,3.67,0,0,0-.87,2.69v7.55a3.67,3.67,0,0,0,.87,2.69A3.27,3.27,0,0,0,1001.44,507.21Z"/><path class="cls-7" d="M1020.71,509a.76.76,0,0,1-.54-.25,2.43,2.43,0,0,1-.41-.58l-3.76-7.34h-2.91v7.36a.62.62,0,0,1-.32.57,1.5,1.5,0,0,1-.73.19,1.48,1.48,0,0,1-.71-.19.61.61,0,0,1-.34-.57V491.38a.66.66,0,0,1,.21-.5.89.89,0,0,1,.54-.23h4.59a8.09,8.09,0,0,1,2.79.47,4.08,4.08,0,0,1,2,1.55,5.13,5.13,0,0,1,.76,3,5.82,5.82,0,0,1-.49,2.53,3.9,3.9,0,0,1-1.34,1.57,5.48,5.48,0,0,1-1.91.79l3.71,7c0,.07.06.13.08.19a.88.88,0,0,1,0,.16.86.86,0,0,1-.19.53,1.41,1.41,0,0,1-.47.4A1.26,1.26,0,0,1,1020.71,509Zm-7.62-9.92h3.24a3.86,3.86,0,0,0,2.5-.76,3,3,0,0,0,.95-2.53,3,3,0,0,0-.95-2.51,3.91,3.91,0,0,0-2.5-.74h-3.24Z"/><path class="cls-7" d="M1035,509a.76.76,0,0,1-.54-.25,3.16,3.16,0,0,1-.41-.58l-3.76-7.34h-2.9v7.36a.61.61,0,0,1-.33.57,1.49,1.49,0,0,1-.72.19,1.52,1.52,0,0,1-.72-.19.62.62,0,0,1-.34-.57V491.38a.63.63,0,0,1,.22-.5.89.89,0,0,1,.54-.23h4.58a8,8,0,0,1,2.79.47,4.06,4.06,0,0,1,2,1.55,5.21,5.21,0,0,1,.75,3,5.68,5.68,0,0,1-.49,2.53,3.82,3.82,0,0,1-1.34,1.57,5.43,5.43,0,0,1-1.9.79l3.71,7c0,.07.05.13.07.19a.45.45,0,0,1,0,.16.93.93,0,0,1-.19.53,1.56,1.56,0,0,1-.48.4A1.26,1.26,0,0,1,1035,509Zm-7.61-9.92h3.23a3.84,3.84,0,0,0,2.5-.76,3,3,0,0,0,1-2.53,3,3,0,0,0-1-2.51,3.9,3.9,0,0,0-2.5-.74h-3.23Z"/><path class="cls-7" d="M1044.41,509a1.55,1.55,0,0,1-.72-.19.61.61,0,0,1-.33-.57v-6.33a.58.58,0,0,0,0-.25l-5.19-9.67-.08-.24a1.76,1.76,0,0,1,0-.19.62.62,0,0,1,.2-.45,1.37,1.37,0,0,1,.49-.31,1.45,1.45,0,0,1,.56-.12.66.66,0,0,1,.44.14,1.41,1.41,0,0,1,.31.41l4.39,8.6,4.41-8.6a1.43,1.43,0,0,1,.32-.41.69.69,0,0,1,.43-.14,1.45,1.45,0,0,1,.56.12,1.37,1.37,0,0,1,.49.31.62.62,0,0,1,.2.45,1.76,1.76,0,0,1,0,.19l-.08.24-5.18,9.67a.34.34,0,0,0-.08.25v6.33a.61.61,0,0,1-.33.57A1.46,1.46,0,0,1,1044.41,509Z"/><path class="cls-7" d="M1060.34,509.12a1.28,1.28,0,0,1-.95-.4,1.31,1.31,0,0,1-.38-.91,1.32,1.32,0,0,1,.38-.94,1.3,1.3,0,0,1,.95-.38,1.26,1.26,0,0,1,.89.38,1.29,1.29,0,0,1,.39.94,1.27,1.27,0,0,1-.39.91A1.24,1.24,0,0,1,1060.34,509.12Zm0-4.54a1,1,0,0,1-.58-.17.58.58,0,0,1-.25-.5c0-1.31,0-2.67-.08-4.09l-.15-4.27c0-1.43-.07-2.78-.07-4.07a1,1,0,0,1,.32-.8,1.28,1.28,0,0,1,1.6,0,1,1,0,0,1,.33.8c0,1.29,0,2.64-.07,4.07s-.11,2.85-.16,4.27-.09,2.78-.09,4.09a.56.56,0,0,1-.28.5A1,1,0,0,1,1060.32,504.58Z"/><path class="cls-7" d="M984.1,548.22a.63.63,0,0,1-.33-.09.26.26,0,0,1-.15-.25v-7.63a.26.26,0,0,1,.15-.25.73.73,0,0,1,.33-.08.66.66,0,0,1,.32.08.26.26,0,0,1,.15.25v7.63a.26.26,0,0,1-.15.25A.57.57,0,0,1,984.1,548.22Z"/><path class="cls-7" d="M986.82,548.22a.49.49,0,0,1-.33-.11.29.29,0,0,1-.13-.23v-4.71a.27.27,0,0,1,.13-.24.61.61,0,0,1,.64,0,.29.29,0,0,1,.12.24v.46a1.68,1.68,0,0,1,.57-.59,1.61,1.61,0,0,1,.95-.27,1.76,1.76,0,0,1,1,.3,2.13,2.13,0,0,1,.73.79,2.2,2.2,0,0,1,.27,1.09v2.93a.26.26,0,0,1-.15.25.61.61,0,0,1-.64,0,.26.26,0,0,1-.15-.25V545a1.27,1.27,0,0,0-.18-.64,1.4,1.4,0,0,0-.47-.5,1.12,1.12,0,0,0-.64-.19,1.19,1.19,0,0,0-.6.17,1.24,1.24,0,0,0-.46.45,1.31,1.31,0,0,0-.18.71v2.93a.31.31,0,0,1-.14.23A.58.58,0,0,1,986.82,548.22Z"/><path class="cls-7" d="M994.25,548.22a2.13,2.13,0,0,1-1.4-.41,1.63,1.63,0,0,1-.48-1.31v-5.84a.27.27,0,0,1,.15-.24.59.59,0,0,1,.32-.09.63.63,0,0,1,.33.09.28.28,0,0,1,.14.24v2.18h1.43a.25.25,0,0,1,.21.11.47.47,0,0,1,.08.26.45.45,0,0,1-.08.26.24.24,0,0,1-.21.1h-1.43v2.93a.92.92,0,0,0,.21.69,1.08,1.08,0,0,0,.73.2h.36a.36.36,0,0,1,.3.12.46.46,0,0,1,.11.29.48.48,0,0,1-.11.29.37.37,0,0,1-.3.13Z"/><path class="cls-7" d="M996.7,548.22a.52.52,0,0,1-.33-.11.32.32,0,0,1-.13-.23v-4.71a.29.29,0,0,1,.13-.24.58.58,0,0,1,.33-.09.52.52,0,0,1,.31.09.27.27,0,0,1,.13.24v.53a1.8,1.8,0,0,1,.84-.79,1.41,1.41,0,0,1,.65-.14H999a.34.34,0,0,1,.26.12.49.49,0,0,1,.11.31.48.48,0,0,1-.11.3.34.34,0,0,1-.26.12h-.38a1.35,1.35,0,0,0-.7.2,1.59,1.59,0,0,0-.54.58,1.75,1.75,0,0,0-.21.89v2.59a.28.28,0,0,1-.14.23A.55.55,0,0,1,996.7,548.22Z"/><path class="cls-7" d="M1002.59,548.31a2.87,2.87,0,0,1-1.31-.28,2.19,2.19,0,0,1-.9-.77,2.09,2.09,0,0,1-.32-1.15v-1.2a1.9,1.9,0,0,1,.31-1.06,2.39,2.39,0,0,1,.82-.79,2.28,2.28,0,0,1,1.12-.29,2.23,2.23,0,0,1,1.09.27,2.16,2.16,0,0,1,.79.74,2,2,0,0,1,.3,1.08,1.18,1.18,0,0,1-.14.65.63.63,0,0,1-.38.24,2.42,2.42,0,0,1-.47,0H1001v.34a1.25,1.25,0,0,0,.45,1,1.82,1.82,0,0,0,1.17.36,1.59,1.59,0,0,0,.67-.11,3.66,3.66,0,0,0,.41-.22.53.53,0,0,1,.28-.11.29.29,0,0,1,.21.08.37.37,0,0,1,.13.17.49.49,0,0,1,0,.18c0,.1-.07.21-.22.34a2.08,2.08,0,0,1-.62.33A2.91,2.91,0,0,1,1002.59,548.31Zm-1.59-3.15h2.1a.72.72,0,0,0,.4-.07.37.37,0,0,0,.1-.29,1.24,1.24,0,0,0-.17-.63,1.29,1.29,0,0,0-.46-.47,1.24,1.24,0,0,0-.67-.18,1.27,1.27,0,0,0-.64.16,1.3,1.3,0,0,0-.48.45,1.16,1.16,0,0,0-.18.63Z"/><path class="cls-7" d="M1006.34,548.22a.52.52,0,0,1-.33-.11.29.29,0,0,1-.13-.23v-4.71a.27.27,0,0,1,.13-.24.58.58,0,0,1,.33-.09.52.52,0,0,1,.31.09.29.29,0,0,1,.13.24v.46a1.73,1.73,0,0,1,.56-.59,1.65,1.65,0,0,1,1-.27,1.8,1.8,0,0,1,1,.3,2.23,2.23,0,0,1,1,1.88v2.93a.26.26,0,0,1-.14.25.63.63,0,0,1-.33.09.59.59,0,0,1-.32-.09.26.26,0,0,1-.15-.25V545a1.36,1.36,0,0,0-.17-.64,1.6,1.6,0,0,0-.47-.5,1.17,1.17,0,0,0-.65-.19,1.15,1.15,0,0,0-.59.17,1.27,1.27,0,0,0-.47.45,1.31,1.31,0,0,0-.18.71v2.93a.31.31,0,0,1-.14.23A.58.58,0,0,1,1006.34,548.22Z"/><path class="cls-7" d="M1013.1,548.31a1.64,1.64,0,0,1-1.09-.37,1.4,1.4,0,0,1-.45-1.14,1.31,1.31,0,0,1,.35-1,1.79,1.79,0,0,1,.93-.48,6.35,6.35,0,0,1,1.38-.13h.55V545a1.89,1.89,0,0,0-.13-.66,1.12,1.12,0,0,0-1.12-.75,2.05,2.05,0,0,0-.63.08,1.87,1.87,0,0,0-.37.17.43.43,0,0,1-.24.08.28.28,0,0,1-.26-.16.64.64,0,0,1-.09-.31c0-.12.08-.23.25-.33a2.11,2.11,0,0,1,.62-.24,3.18,3.18,0,0,1,.74-.09,2.27,2.27,0,0,1,1.27.32,1.8,1.8,0,0,1,.69.81,2.76,2.76,0,0,1,.21,1.07v2.91a.3.3,0,0,1-.13.24.6.6,0,0,1-.34.1.49.49,0,0,1-.3-.1.3.3,0,0,1-.13-.24v-.46a3.59,3.59,0,0,1-.71.62A1.82,1.82,0,0,1,1013.1,548.31Zm.29-.76a1.24,1.24,0,0,0,.64-.18,1.82,1.82,0,0,0,.53-.46.85.85,0,0,0,.21-.52v-.59h-.4a6.37,6.37,0,0,0-.9.06,1.44,1.44,0,0,0-.69.24.7.7,0,0,0-.26.6.76.76,0,0,0,.25.64A.91.91,0,0,0,1013.39,547.55Z"/><path class="cls-7" d="M1017.9,548.22a.53.53,0,0,1-.34-.11.32.32,0,0,1-.13-.23v-8a.29.29,0,0,1,.13-.24.59.59,0,0,1,.34-.09.58.58,0,0,1,.33.09.27.27,0,0,1,.15.24v8a.29.29,0,0,1-.15.23A.52.52,0,0,1,1017.9,548.22Z"/><path class="cls-7" d="M1024.88,548.31a3.51,3.51,0,0,1-1.27-.22,2.43,2.43,0,0,1-.84-.53.81.81,0,0,1-.29-.53.53.53,0,0,1,.06-.24.62.62,0,0,1,.16-.2.28.28,0,0,1,.2-.09.36.36,0,0,1,.26.14l.33.32a1.66,1.66,0,0,0,.52.33,2.53,2.53,0,0,0,1.66,0,1.25,1.25,0,0,0,.55-.47,1.43,1.43,0,0,0,.19-.78,1.4,1.4,0,0,0-.2-.8,1.88,1.88,0,0,0-.54-.51,3.82,3.82,0,0,0-.73-.36l-.79-.33a3.06,3.06,0,0,1-.73-.41,1.85,1.85,0,0,1-.54-.63,2.12,2.12,0,0,1-.2-1,2,2,0,0,1,.23-1,1.71,1.71,0,0,1,.6-.65,2.63,2.63,0,0,1,.81-.34,4.26,4.26,0,0,1,.86-.09,4.78,4.78,0,0,1,.64,0,4.14,4.14,0,0,1,.65.14,1.66,1.66,0,0,1,.5.23.42.42,0,0,1,.19.34.59.59,0,0,1-.18.42.28.28,0,0,1-.23.1.65.65,0,0,1-.3-.11,3.79,3.79,0,0,0-.48-.22,2.49,2.49,0,0,0-.79-.1,2.39,2.39,0,0,0-.77.11,1.15,1.15,0,0,0-.57.38,1.21,1.21,0,0,0,0,1.36,1.52,1.52,0,0,0,.53.43,5.52,5.52,0,0,0,.73.31c.26.1.53.21.79.33a3.61,3.61,0,0,1,.73.46,1.84,1.84,0,0,1,.54.71,2.93,2.93,0,0,1-.12,2.44,1.91,1.91,0,0,1-.88.78A3,3,0,0,1,1024.88,548.31Z"/><path class="cls-7" d="M1031.14,548.31a2.87,2.87,0,0,1-1.31-.28,2.19,2.19,0,0,1-.9-.77,2,2,0,0,1-.33-1.15v-1.2a1.91,1.91,0,0,1,.32-1.06,2.3,2.3,0,0,1,.82-.79,2.32,2.32,0,0,1,2.21,0,2.16,2.16,0,0,1,.79.74,2,2,0,0,1,.3,1.08,1.09,1.09,0,0,1-.15.65.58.58,0,0,1-.37.24,2.44,2.44,0,0,1-.48,0h-2.49v.34a1.25,1.25,0,0,0,.45,1,1.82,1.82,0,0,0,1.17.36,1.59,1.59,0,0,0,.67-.11,3.66,3.66,0,0,0,.41-.22.53.53,0,0,1,.28-.11.3.3,0,0,1,.21.08.37.37,0,0,1,.13.17.49.49,0,0,1,.05.18c0,.1-.07.21-.22.34a2.08,2.08,0,0,1-.62.33A3,3,0,0,1,1031.14,548.31Zm-1.59-3.15h2.1a.72.72,0,0,0,.4-.07.37.37,0,0,0,.1-.29,1.24,1.24,0,0,0-.17-.63,1.29,1.29,0,0,0-.46-.47,1.35,1.35,0,0,0-1.31,0,1.3,1.3,0,0,0-.48.45,1.16,1.16,0,0,0-.18.63Z"/><path class="cls-7" d="M1034.88,548.22a.48.48,0,0,1-.32-.11.29.29,0,0,1-.13-.23v-4.71a.27.27,0,0,1,.13-.24.61.61,0,0,1,.64,0,.29.29,0,0,1,.12.24v.53a1.83,1.83,0,0,1,.35-.45,1.77,1.77,0,0,1,.5-.34,1.37,1.37,0,0,1,.64-.14h.39a.32.32,0,0,1,.25.12.49.49,0,0,1,.11.31.48.48,0,0,1-.11.3.32.32,0,0,1-.25.12h-.39a1.34,1.34,0,0,0-.69.2,1.59,1.59,0,0,0-.54.58,1.75,1.75,0,0,0-.21.89v2.59a.31.31,0,0,1-.14.23A.58.58,0,0,1,1034.88,548.22Z"/><path class="cls-7" d="M1040.46,548.32a.76.76,0,0,1-.27-.05.36.36,0,0,1-.17-.15l-1.86-4.72s0,0,0-.07a.45.45,0,0,1,0-.11.32.32,0,0,1,.09-.21.72.72,0,0,1,.24-.14.7.7,0,0,1,.27-.06.41.41,0,0,1,.18.05.24.24,0,0,1,.12.14l1.44,3.86,1.43-3.82a.29.29,0,0,1,.1-.16.32.32,0,0,1,.2-.07.61.61,0,0,1,.25.06.77.77,0,0,1,.25.14.27.27,0,0,1,.11.21.41.41,0,0,1,0,.11l0,.07-1.86,4.72a.3.3,0,0,1-.17.14A.66.66,0,0,1,1040.46,548.32Z"/><path class="cls-7" d="M1046.24,548.31a2.86,2.86,0,0,1-1.3-.28,2.19,2.19,0,0,1-.9-.77,2,2,0,0,1-.33-1.15v-1.2a2,2,0,0,1,.31-1.06,2.42,2.42,0,0,1,.83-.79,2.23,2.23,0,0,1,3,.72,2,2,0,0,1,.3,1.08,1.09,1.09,0,0,1-.15.65.58.58,0,0,1-.37.24,2.44,2.44,0,0,1-.48,0h-2.5v.34a1.26,1.26,0,0,0,.46,1,1.82,1.82,0,0,0,1.17.36,1.59,1.59,0,0,0,.67-.11c.16-.08.3-.15.41-.22a.53.53,0,0,1,.28-.11.32.32,0,0,1,.21.08.37.37,0,0,1,.13.17.49.49,0,0,1,0,.18c0,.1-.08.21-.22.34a2.08,2.08,0,0,1-.62.33A3,3,0,0,1,1046.24,548.31Zm-1.59-3.15h2.1a.76.76,0,0,0,.41-.07.37.37,0,0,0,.09-.29,1.23,1.23,0,0,0-.16-.63,1.29,1.29,0,0,0-.46-.47,1.27,1.27,0,0,0-.67-.18,1.33,1.33,0,0,0-.65.16,1.35,1.35,0,0,0-.47.45,1.09,1.09,0,0,0-.19.63Z"/><path class="cls-7" d="M1050,548.22a.48.48,0,0,1-.32-.11.29.29,0,0,1-.13-.23v-4.71a.27.27,0,0,1,.13-.24.53.53,0,0,1,.32-.09.55.55,0,0,1,.32.09.29.29,0,0,1,.12.24v.53a2.05,2.05,0,0,1,.34-.45,2,2,0,0,1,.51-.34,1.37,1.37,0,0,1,.64-.14h.39a.33.33,0,0,1,.25.12.49.49,0,0,1,.11.31.48.48,0,0,1-.11.3.33.33,0,0,1-.25.12h-.39a1.34,1.34,0,0,0-.69.2,1.59,1.59,0,0,0-.54.58,1.75,1.75,0,0,0-.21.89v2.59a.31.31,0,0,1-.14.23A.58.58,0,0,1,1050,548.22Z"/><path class="cls-7" d="M1056.94,548.22a.53.53,0,0,1-.3-.09.27.27,0,0,1-.13-.25v-7.62a.29.29,0,0,1,.13-.26.61.61,0,0,1,.3-.08h4a.26.26,0,0,1,.25.14.55.55,0,0,1,0,.59.26.26,0,0,1-.24.13h-3.52v2.89h1.77a.26.26,0,0,1,.24.12.47.47,0,0,1,.09.28.52.52,0,0,1-.07.27.29.29,0,0,1-.26.12h-1.77v2.89H1061a.27.27,0,0,1,.24.14.52.52,0,0,1,.09.31.57.57,0,0,1-.08.28.26.26,0,0,1-.25.14Z"/><path class="cls-7" d="M1063,548.22a.52.52,0,0,1-.33-.11.32.32,0,0,1-.13-.23v-4.71a.29.29,0,0,1,.13-.24.58.58,0,0,1,.33-.09.55.55,0,0,1,.32.09.29.29,0,0,1,.12.24v.53a1.78,1.78,0,0,1,.34-.45,1.82,1.82,0,0,1,.51-.34,1.34,1.34,0,0,1,.64-.14h.38a.34.34,0,0,1,.26.12.49.49,0,0,1,.11.31.48.48,0,0,1-.11.3.34.34,0,0,1-.26.12h-.38a1.34,1.34,0,0,0-.69.2,1.59,1.59,0,0,0-.54.58,1.75,1.75,0,0,0-.21.89v2.59a.29.29,0,0,1-.15.23A.55.55,0,0,1,1063,548.22Z"/><path class="cls-7" d="M1067.22,548.22a.48.48,0,0,1-.32-.11.29.29,0,0,1-.13-.23v-4.71a.27.27,0,0,1,.13-.24.61.61,0,0,1,.64,0,.29.29,0,0,1,.12.24v.53a2.05,2.05,0,0,1,.34-.45,2,2,0,0,1,.51-.34,1.37,1.37,0,0,1,.64-.14h.39a.32.32,0,0,1,.25.12.49.49,0,0,1,.11.31.48.48,0,0,1-.11.3.32.32,0,0,1-.25.12h-.39a1.34,1.34,0,0,0-.69.2,1.59,1.59,0,0,0-.54.58,1.75,1.75,0,0,0-.21.89v2.59a.31.31,0,0,1-.14.23A.58.58,0,0,1,1067.22,548.22Z"/><path class="cls-7" d="M1072.82,548.31a2.07,2.07,0,0,1-1.11-.31,2.27,2.27,0,0,1-.82-.81,2,2,0,0,1-.31-1.08V545a2,2,0,0,1,.3-1.07,2.3,2.3,0,0,1,.81-.8,2.11,2.11,0,0,1,1.13-.31,2.24,2.24,0,0,1,1.11.29,2.39,2.39,0,0,1,.82.79,2,2,0,0,1,.32,1.1v1.16a2,2,0,0,1-.32,1.07,2.47,2.47,0,0,1-.82.82A2.16,2.16,0,0,1,1072.82,548.31Zm0-.85a1.19,1.19,0,0,0,.66-.2,1.38,1.38,0,0,0,.64-1.15V545a1.3,1.3,0,0,0-.17-.64,1.6,1.6,0,0,0-.47-.5,1.18,1.18,0,0,0-.66-.19,1.13,1.13,0,0,0-.65.19,1.5,1.5,0,0,0-.47.5,1.21,1.21,0,0,0-.18.64v1.16a1.4,1.4,0,0,0,.17.65,1.28,1.28,0,0,0,.48.5A1.16,1.16,0,0,0,1072.82,547.46Z"/><path class="cls-7" d="M1077,548.22a.52.52,0,0,1-.33-.11.29.29,0,0,1-.13-.23v-4.71a.27.27,0,0,1,.13-.24.58.58,0,0,1,.33-.09.52.52,0,0,1,.31.09.27.27,0,0,1,.13.24v.53a1.57,1.57,0,0,1,.34-.45,1.77,1.77,0,0,1,.5-.34,1.39,1.39,0,0,1,.64-.14h.39a.35.35,0,0,1,.26.12.48.48,0,0,1,.1.31.47.47,0,0,1-.1.3.35.35,0,0,1-.26.12h-.39a1.34,1.34,0,0,0-.69.2,1.59,1.59,0,0,0-.54.58,1.75,1.75,0,0,0-.21.89v2.59a.28.28,0,0,1-.14.23A.55.55,0,0,1,1077,548.22Z"/><path class="cls-7" d="M1081.29,548.29a.56.56,0,0,1-.44-.19.58.58,0,0,1-.17-.4.61.61,0,0,1,.17-.43.59.59,0,0,1,.44-.18.55.55,0,0,1,.4.18.57.57,0,0,1,.17.43.54.54,0,0,1-.17.4A.53.53,0,0,1,1081.29,548.29Zm0-2.06a.5.5,0,0,1-.26-.08.27.27,0,0,1-.11-.23c0-.59,0-1.2,0-1.85s0-1.28-.07-1.93,0-1.26,0-1.85a.45.45,0,0,1,.15-.36.6.6,0,0,1,.72,0,.45.45,0,0,1,.16.36c0,.59,0,1.2,0,1.85s0,1.29-.07,1.93,0,1.26,0,1.85a.25.25,0,0,1-.13.23A.46.46,0,0,1,1081.27,546.23Z"/><path class="cls-7" d="M985.59,566.22a.63.63,0,0,1-.33-.09.27.27,0,0,1-.14-.25v-7.07h-1.84a.28.28,0,0,1-.24-.14.57.57,0,0,1-.09-.32.6.6,0,0,1,.08-.29.26.26,0,0,1,.25-.14h4.63a.27.27,0,0,1,.25.14.6.6,0,0,1,.08.29.65.65,0,0,1-.08.31.26.26,0,0,1-.25.15h-1.84v7.07a.26.26,0,0,1-.15.25A.63.63,0,0,1,985.59,566.22Z"/><path class="cls-7" d="M989.86,566.22a.5.5,0,0,1-.33-.11.29.29,0,0,1-.13-.23v-8a.27.27,0,0,1,.13-.24.56.56,0,0,1,.33-.09.64.64,0,0,1,.34.09.28.28,0,0,1,.14.24v3.71a1.7,1.7,0,0,1,.55-.59,1.52,1.52,0,0,1,.92-.27,1.76,1.76,0,0,1,1,.3,2.13,2.13,0,0,1,.73.79,2.2,2.2,0,0,1,.27,1.09v2.93a.27.27,0,0,1-.14.25.63.63,0,0,1-.33.09.59.59,0,0,1-.32-.09.26.26,0,0,1-.15-.25V563a1.27,1.27,0,0,0-.18-.64,1.6,1.6,0,0,0-.47-.5,1.14,1.14,0,0,0-.64-.19,1.12,1.12,0,0,0-.59.17,1.27,1.27,0,0,0-.47.45,1.31,1.31,0,0,0-.18.71v2.93a.31.31,0,0,1-.14.23A.58.58,0,0,1,989.86,566.22Z"/><path class="cls-7" d="M997.76,566.31a2.83,2.83,0,0,1-1.3-.28,2.19,2.19,0,0,1-.9-.77,2,2,0,0,1-.33-1.15v-1.2a1.9,1.9,0,0,1,.31-1.06,2.42,2.42,0,0,1,.83-.79,2.25,2.25,0,0,1,1.12-.29,2.22,2.22,0,0,1,1.88,1,2,2,0,0,1,.3,1.08,1.09,1.09,0,0,1-.15.65.6.6,0,0,1-.37.24,2.44,2.44,0,0,1-.48,0h-2.5v.34a1.23,1.23,0,0,0,.46,1,1.82,1.82,0,0,0,1.17.36,1.59,1.59,0,0,0,.67-.11c.16-.08.3-.15.41-.22a.53.53,0,0,1,.28-.11.32.32,0,0,1,.21.08.37.37,0,0,1,.13.17.45.45,0,0,1,0,.18.52.52,0,0,1-.21.34,2.08,2.08,0,0,1-.62.33A3,3,0,0,1,997.76,566.31Zm-1.59-3.15h2.1a.76.76,0,0,0,.41-.07.37.37,0,0,0,.09-.29,1.23,1.23,0,0,0-.16-.63,1.38,1.38,0,0,0-.46-.47,1.27,1.27,0,0,0-.67-.18,1.31,1.31,0,0,0-.65.16,1.38,1.38,0,0,0-.48.45,1.16,1.16,0,0,0-.18.63Z"/><path class="cls-7" d="M1005.78,566.31a3.48,3.48,0,0,1-1.27-.22,2.25,2.25,0,0,1-.84-.53.83.83,0,0,1-.3-.53.53.53,0,0,1,.06-.24.78.78,0,0,1,.16-.2.3.3,0,0,1,.2-.09.4.4,0,0,1,.27.14,3.45,3.45,0,0,0,.33.32,1.61,1.61,0,0,0,.51.33,2.19,2.19,0,0,0,.83.13,2.09,2.09,0,0,0,.83-.15,1.2,1.2,0,0,0,.55-.47,1.43,1.43,0,0,0,.2-.78,1.48,1.48,0,0,0-.2-.8,1.88,1.88,0,0,0-.54-.51,4.5,4.5,0,0,0-.73-.36l-.8-.33a3.26,3.26,0,0,1-.73-.41,1.82,1.82,0,0,1-.53-.63,2,2,0,0,1-.2-1,2.1,2.1,0,0,1,.22-1,1.71,1.71,0,0,1,.6-.65,2.59,2.59,0,0,1,.82-.34,4.17,4.17,0,0,1,.85-.09,4.93,4.93,0,0,1,.65,0,4.4,4.4,0,0,1,.65.14,1.79,1.79,0,0,1,.5.23.44.44,0,0,1,.19.34.63.63,0,0,1,0,.21.57.57,0,0,1-.13.21.29.29,0,0,1-.23.1.68.68,0,0,1-.31-.11,3.79,3.79,0,0,0-.48-.22,2.45,2.45,0,0,0-.79-.1,2.33,2.33,0,0,0-.76.11,1.15,1.15,0,0,0-.57.38,1.05,1.05,0,0,0-.21.69,1.11,1.11,0,0,0,.2.67,1.66,1.66,0,0,0,.54.43,6,6,0,0,0,.72.31c.27.1.53.21.8.33a3.91,3.91,0,0,1,.73.46,2.06,2.06,0,0,1,.54.71,2.53,2.53,0,0,1,.2,1.09,2.5,2.5,0,0,1-.32,1.35,2,2,0,0,1-.88.78A3,3,0,0,1,1005.78,566.31Z"/><path class="cls-7" d="M1012,566.31a2.83,2.83,0,0,1-1.3-.28,2.19,2.19,0,0,1-.9-.77,2,2,0,0,1-.33-1.15v-1.2a1.9,1.9,0,0,1,.31-1.06,2.33,2.33,0,0,1,.83-.79,2.25,2.25,0,0,1,1.12-.29,2.22,2.22,0,0,1,1.08.27,2.19,2.19,0,0,1,.8.74,2,2,0,0,1,.3,1.08,1.09,1.09,0,0,1-.15.65.6.6,0,0,1-.37.24,2.44,2.44,0,0,1-.48,0h-2.5v.34a1.23,1.23,0,0,0,.46,1,1.82,1.82,0,0,0,1.17.36,1.59,1.59,0,0,0,.67-.11,3.42,3.42,0,0,0,.4-.22.55.55,0,0,1,.29-.11.32.32,0,0,1,.21.08.37.37,0,0,1,.13.17.45.45,0,0,1,0,.18.52.52,0,0,1-.21.34,2.08,2.08,0,0,1-.62.33A3,3,0,0,1,1012,566.31Zm-1.59-3.15h2.1a.76.76,0,0,0,.41-.07.37.37,0,0,0,.09-.29,1.23,1.23,0,0,0-.16-.63,1.38,1.38,0,0,0-.46-.47,1.27,1.27,0,0,0-.67-.18,1.31,1.31,0,0,0-.65.16,1.38,1.38,0,0,0-.48.45,1.16,1.16,0,0,0-.18.63Z"/><path class="cls-7" d="M1015.78,566.22a.52.52,0,0,1-.33-.11.32.32,0,0,1-.13-.23v-4.71a.29.29,0,0,1,.13-.24.58.58,0,0,1,.33-.09.5.5,0,0,1,.31.09.27.27,0,0,1,.13.24v.53a1.78,1.78,0,0,1,.34-.45,1.69,1.69,0,0,1,.51-.34,1.34,1.34,0,0,1,.64-.14h.38a.34.34,0,0,1,.26.12.49.49,0,0,1,.11.31.48.48,0,0,1-.11.3.34.34,0,0,1-.26.12h-.38a1.35,1.35,0,0,0-.7.2,1.57,1.57,0,0,0-.53.58,1.65,1.65,0,0,0-.21.89v2.59a.29.29,0,0,1-.15.23A.55.55,0,0,1,1015.78,566.22Z"/><path class="cls-7" d="M1021.35,566.32a.76.76,0,0,1-.27-.05.34.34,0,0,1-.16-.15l-1.86-4.72a.24.24,0,0,1,0-.07.52.52,0,0,1,0-.11.29.29,0,0,1,.1-.21.57.57,0,0,1,.24-.14.65.65,0,0,1,.26-.06.49.49,0,0,1,.19.05.24.24,0,0,1,.12.14l1.43,3.86,1.43-3.82a.31.31,0,0,1,.11-.16.3.3,0,0,1,.2-.07.65.65,0,0,1,.25.06.89.89,0,0,1,.25.14.31.31,0,0,1,.11.21.43.43,0,0,1,0,.11.25.25,0,0,0,0,.07l-1.87,4.72a.27.27,0,0,1-.17.14A.6.6,0,0,1,1021.35,566.32Z"/><path class="cls-7" d="M1027.14,566.31a2.9,2.9,0,0,1-1.31-.28,2.22,2.22,0,0,1-.89-.77,2,2,0,0,1-.33-1.15v-1.2a1.9,1.9,0,0,1,.31-1.06,2.39,2.39,0,0,1,.82-.79,2.29,2.29,0,0,1,1.13-.29,2.22,2.22,0,0,1,1.08.27,2.19,2.19,0,0,1,.8.74,2,2,0,0,1,.3,1.08,1.09,1.09,0,0,1-.15.65.6.6,0,0,1-.37.24,2.61,2.61,0,0,1-.48,0h-2.5v.34a1.25,1.25,0,0,0,.45,1,1.85,1.85,0,0,0,1.17.36,1.56,1.56,0,0,0,.67-.11,2.94,2.94,0,0,0,.41-.22.55.55,0,0,1,.29-.11.32.32,0,0,1,.21.08.46.46,0,0,1,.17.35.52.52,0,0,1-.21.34,2.21,2.21,0,0,1-.62.33A3,3,0,0,1,1027.14,566.31Zm-1.59-3.15h2.1a.7.7,0,0,0,.4-.07.34.34,0,0,0,.1-.29,1.23,1.23,0,0,0-.16-.63,1.38,1.38,0,0,0-.46-.47,1.27,1.27,0,0,0-.67-.18,1.31,1.31,0,0,0-1.13.61,1.16,1.16,0,0,0-.18.63Z"/><path class="cls-7" d="M1030.89,566.22a.52.52,0,0,1-.33-.11.32.32,0,0,1-.13-.23v-4.71a.29.29,0,0,1,.13-.24.58.58,0,0,1,.33-.09.52.52,0,0,1,.31.09.27.27,0,0,1,.13.24v.53a1.8,1.8,0,0,1,.84-.79,1.41,1.41,0,0,1,.65-.14h.38a.34.34,0,0,1,.26.12.49.49,0,0,1,.11.31.48.48,0,0,1-.11.3.34.34,0,0,1-.26.12h-.38a1.35,1.35,0,0,0-.7.2,1.59,1.59,0,0,0-.54.58,1.75,1.75,0,0,0-.2.89v2.59a.29.29,0,0,1-.15.23A.55.55,0,0,1,1030.89,566.22Z"/><path class="cls-7" d="M1037.88,566.22a.66.66,0,0,1-.33-.09.26.26,0,0,1-.15-.25v-7.63a.26.26,0,0,1,.15-.25.76.76,0,0,1,.33-.08.73.73,0,0,1,.33.08.26.26,0,0,1,.15.25v3.27h3.07v-3.27a.26.26,0,0,1,.15-.25.76.76,0,0,1,.33-.08.73.73,0,0,1,.33.08.26.26,0,0,1,.14.25v7.63a.26.26,0,0,1-.14.25.63.63,0,0,1-.33.09.66.66,0,0,1-.33-.09.26.26,0,0,1-.15-.25v-3.57h-3.07v3.57a.26.26,0,0,1-.15.25A.63.63,0,0,1,1037.88,566.22Z"/><path class="cls-7" d="M1045.39,566.31a1.63,1.63,0,0,1-1.08-.37,1.4,1.4,0,0,1-.45-1.14,1.3,1.3,0,0,1,.34-1,1.87,1.87,0,0,1,.94-.48,6.35,6.35,0,0,1,1.38-.13h.54V563a1.88,1.88,0,0,0-.12-.66,1.31,1.31,0,0,0-.39-.53,1.18,1.18,0,0,0-.74-.22,2.15,2.15,0,0,0-.63.08,2.63,2.63,0,0,0-.37.17.42.42,0,0,1-.23.08.3.3,0,0,1-.27-.16.64.64,0,0,1-.09-.31c0-.12.09-.23.25-.33a2.3,2.3,0,0,1,.63-.24,3.12,3.12,0,0,1,.74-.09,2.27,2.27,0,0,1,1.27.32,1.84,1.84,0,0,1,.68.81A2.76,2.76,0,0,1,1048,563v2.91a.3.3,0,0,1-.13.24.56.56,0,0,1-.33.1.55.55,0,0,1-.31-.1.31.31,0,0,1-.12-.24v-.46a3.66,3.66,0,0,1-.72.62A1.8,1.8,0,0,1,1045.39,566.31Zm.3-.76a1.27,1.27,0,0,0,.64-.18,1.78,1.78,0,0,0,.52-.46.85.85,0,0,0,.21-.52v-.59h-.39a6.62,6.62,0,0,0-.91.06,1.44,1.44,0,0,0-.68.24.68.68,0,0,0-.27.6.79.79,0,0,0,.25.64A1,1,0,0,0,1045.69,565.55Z"/><path class="cls-7" d="M1051.17,566.31a3.13,3.13,0,0,1-1-.14,2.25,2.25,0,0,1-.66-.34.53.53,0,0,1-.24-.38.43.43,0,0,1,0-.19.52.52,0,0,1,.12-.17.25.25,0,0,1,.17-.08.46.46,0,0,1,.29.14,3,3,0,0,0,.43.26,1.86,1.86,0,0,0,.79.14,1.28,1.28,0,0,0,.84-.22.68.68,0,0,0,.24-.5.7.7,0,0,0-.21-.54,1.44,1.44,0,0,0-.52-.29l-.67-.21a3.87,3.87,0,0,1-.67-.26,1.35,1.35,0,0,1-.52-.43,1.25,1.25,0,0,1-.19-.74,1.65,1.65,0,0,1,.18-.74,1.49,1.49,0,0,1,.59-.61,2.12,2.12,0,0,1,1.09-.24,3.77,3.77,0,0,1,.76.08,2.15,2.15,0,0,1,.6.23q.24.15.24.3a.49.49,0,0,1-.05.18.72.72,0,0,1-.12.21.27.27,0,0,1-.21.09.58.58,0,0,1-.25-.09,3.31,3.31,0,0,0-.4-.16,1.84,1.84,0,0,0-.56-.08,1.16,1.16,0,0,0-.6.13.9.9,0,0,0-.33.31.64.64,0,0,0-.1.35.55.55,0,0,0,.19.45,1.63,1.63,0,0,0,.53.25l.67.2a2.61,2.61,0,0,1,.67.27,1.37,1.37,0,0,1,.73,1.3,1.35,1.35,0,0,1-.5,1.1A2.12,2.12,0,0,1,1051.17,566.31Z"/><path class="cls-7" d="M1057.63,566.22a.45.45,0,0,1-.31-.1.28.28,0,0,1-.12-.23v-7.63a.29.29,0,0,1,.13-.26.64.64,0,0,1,.3-.08h1.95a4.16,4.16,0,0,1,1.15.15,1.55,1.55,0,0,1,.84.58,2,2,0,0,1,.32,1.21,2.49,2.49,0,0,1-.26,1.19,1.48,1.48,0,0,1-.71.67,2.13,2.13,0,0,1,.62.37,1.71,1.71,0,0,1,.4.6,2.61,2.61,0,0,1,.15,1v.21a2.9,2.9,0,0,1-.29,1.39,1.75,1.75,0,0,1-.81.74,2.81,2.81,0,0,1-1.15.23Zm.52-4.89h1.42a1.44,1.44,0,0,0,1-.32,1.7,1.7,0,0,0,.16-1.75,1,1,0,0,0-.49-.37,2.29,2.29,0,0,0-.73-.11h-1.39Zm0,4h1.53a1.48,1.48,0,0,0,1.08-.37,1.61,1.61,0,0,0,.38-1.18v-.19a1.51,1.51,0,0,0-.38-1.16,1.6,1.6,0,0,0-1.08-.33h-1.53Z"/><path class="cls-7" d="M1065.92,566.31a2.87,2.87,0,0,1-1.31-.28,2.19,2.19,0,0,1-.9-.77,2.09,2.09,0,0,1-.32-1.15v-1.2a1.9,1.9,0,0,1,.31-1.06,2.39,2.39,0,0,1,.82-.79,2.28,2.28,0,0,1,1.12-.29,2.23,2.23,0,0,1,1.09.27,2.16,2.16,0,0,1,.79.74,2,2,0,0,1,.3,1.08,1.18,1.18,0,0,1-.14.65.63.63,0,0,1-.38.24,2.42,2.42,0,0,1-.47,0h-2.5v.34a1.25,1.25,0,0,0,.45,1,1.82,1.82,0,0,0,1.17.36,1.59,1.59,0,0,0,.67-.11,3.66,3.66,0,0,0,.41-.22.53.53,0,0,1,.28-.11.29.29,0,0,1,.21.08.37.37,0,0,1,.13.17.49.49,0,0,1,0,.18c0,.1-.07.21-.22.34a2.08,2.08,0,0,1-.62.33A2.91,2.91,0,0,1,1065.92,566.31Zm-1.59-3.15h2.1a.72.72,0,0,0,.4-.07.37.37,0,0,0,.1-.29,1.24,1.24,0,0,0-.17-.63,1.29,1.29,0,0,0-.46-.47,1.24,1.24,0,0,0-.67-.18,1.27,1.27,0,0,0-.64.16,1.3,1.3,0,0,0-.48.45,1.16,1.16,0,0,0-.18.63Z"/><path class="cls-7" d="M1071.54,566.31a2.87,2.87,0,0,1-1.31-.28,2.19,2.19,0,0,1-.9-.77,2,2,0,0,1-.33-1.15v-1.2a1.91,1.91,0,0,1,.32-1.06,2.3,2.3,0,0,1,.82-.79,2.32,2.32,0,0,1,2.21,0,2.16,2.16,0,0,1,.79.74,2,2,0,0,1,.3,1.08,1.09,1.09,0,0,1-.15.65.58.58,0,0,1-.37.24,2.44,2.44,0,0,1-.48,0H1070v.34a1.25,1.25,0,0,0,.45,1,1.82,1.82,0,0,0,1.17.36,1.59,1.59,0,0,0,.67-.11,3.66,3.66,0,0,0,.41-.22.53.53,0,0,1,.28-.11.32.32,0,0,1,.21.08.37.37,0,0,1,.13.17.49.49,0,0,1,0,.18c0,.1-.07.21-.22.34a2.08,2.08,0,0,1-.62.33A3,3,0,0,1,1071.54,566.31Zm-1.59-3.15h2.1a.74.74,0,0,0,.4-.07.37.37,0,0,0,.09-.29,1.23,1.23,0,0,0-.16-.63,1.29,1.29,0,0,0-.46-.47,1.27,1.27,0,0,0-.67-.18,1.33,1.33,0,0,0-.65.16,1.35,1.35,0,0,0-.47.45,1.16,1.16,0,0,0-.18.63Z"/><path class="cls-7" d="M1075.29,566.22a.5.5,0,0,1-.33-.11.29.29,0,0,1-.13-.23v-4.71a.27.27,0,0,1,.13-.24.56.56,0,0,1,.33-.09.52.52,0,0,1,.31.09.29.29,0,0,1,.12.24v.46a1.68,1.68,0,0,1,.57-.59,1.65,1.65,0,0,1,1-.27,1.75,1.75,0,0,1,1,.3,2.13,2.13,0,0,1,.73.79,2.2,2.2,0,0,1,.27,1.09v2.93a.26.26,0,0,1-.15.25.57.57,0,0,1-.32.09.59.59,0,0,1-.32-.09.26.26,0,0,1-.15-.25V563a1.36,1.36,0,0,0-.17-.64,1.53,1.53,0,0,0-.48-.5,1.12,1.12,0,0,0-.64-.19,1.15,1.15,0,0,0-.59.17,1.27,1.27,0,0,0-.47.45,1.31,1.31,0,0,0-.18.71v2.93a.31.31,0,0,1-.14.23A.58.58,0,0,1,1075.29,566.22Z"/><path class="cls-7" d="M1084,566.22a.46.46,0,0,1-.31-.1.28.28,0,0,1-.12-.23v-7.64a.28.28,0,0,1,.12-.23.46.46,0,0,1,.31-.1h2a3.13,3.13,0,0,1,1.25.24,1.92,1.92,0,0,1,.88.79,2.74,2.74,0,0,1,.32,1.44v3.35a2.76,2.76,0,0,1-.32,1.45,1.85,1.85,0,0,1-.88.78,3,3,0,0,1-1.25.25Zm.53-.87h1.48a1.49,1.49,0,0,0,1.1-.39,1.62,1.62,0,0,0,.4-1.22v-3.35a1.65,1.65,0,0,0-.4-1.22,1.49,1.49,0,0,0-1.1-.39h-1.48Z"/><path class="cls-7" d="M1092.57,566.31a2.9,2.9,0,0,1-1.31-.28,2.16,2.16,0,0,1-.89-.77,2,2,0,0,1-.33-1.15v-1.2a1.9,1.9,0,0,1,.31-1.06,2.39,2.39,0,0,1,.82-.79,2.29,2.29,0,0,1,1.13-.29,2.22,2.22,0,0,1,1.08.27,2.27,2.27,0,0,1,.8.74,2,2,0,0,1,.3,1.08,1.09,1.09,0,0,1-.15.65.6.6,0,0,1-.38.24,2.42,2.42,0,0,1-.47,0H1091v.34a1.25,1.25,0,0,0,.45,1,1.85,1.85,0,0,0,1.17.36,1.56,1.56,0,0,0,.67-.11,2.94,2.94,0,0,0,.41-.22.55.55,0,0,1,.29-.11.32.32,0,0,1,.21.08.46.46,0,0,1,.17.35.52.52,0,0,1-.21.34,2.21,2.21,0,0,1-.62.33A3,3,0,0,1,1092.57,566.31Zm-1.59-3.15h2.1a.72.72,0,0,0,.4-.07.34.34,0,0,0,.1-.29,1.34,1.34,0,0,0-.16-.63,1.47,1.47,0,0,0-.46-.47,1.37,1.37,0,0,0-1.32,0,1.3,1.3,0,0,0-.48.45,1.16,1.16,0,0,0-.18.63Z"/><path class="cls-7" d="M1097.41,566.31a3.15,3.15,0,0,1-1-.14,2.25,2.25,0,0,1-.66-.34.53.53,0,0,1-.24-.38.45.45,0,0,1,0-.19.52.52,0,0,1,.12-.17.23.23,0,0,1,.16-.08.51.51,0,0,1,.3.14,2.54,2.54,0,0,0,.43.26,1.78,1.78,0,0,0,.78.14,1.28,1.28,0,0,0,.84-.22.68.68,0,0,0,.24-.5.73.73,0,0,0-.2-.54,1.49,1.49,0,0,0-.53-.29l-.67-.21a4.22,4.22,0,0,1-.67-.26,1.2,1.2,0,0,1-.71-1.17,1.65,1.65,0,0,1,.18-.74,1.56,1.56,0,0,1,.59-.61,2.15,2.15,0,0,1,1.09-.24,3.87,3.87,0,0,1,.77.08,2.43,2.43,0,0,1,.6.23c.15.1.23.2.23.3a.45.45,0,0,1,0,.18.74.74,0,0,1-.13.21.25.25,0,0,1-.2.09.61.61,0,0,1-.26-.09,3.31,3.31,0,0,0-.4-.16,1.79,1.79,0,0,0-.56-.08,1.16,1.16,0,0,0-.6.13.9.9,0,0,0-.33.31.64.64,0,0,0-.1.35.56.56,0,0,0,.2.45,1.48,1.48,0,0,0,.52.25l.68.2a2.94,2.94,0,0,1,.67.27,1.49,1.49,0,0,1,.52.48,1.51,1.51,0,0,1,.2.82,1.33,1.33,0,0,1-.5,1.1A2.11,2.11,0,0,1,1097.41,566.31Z"/><path class="cls-7" d="M1103,566.31a2.83,2.83,0,0,1-1.3-.28,2.19,2.19,0,0,1-.9-.77,2,2,0,0,1-.33-1.15v-1.2a1.9,1.9,0,0,1,.31-1.06,2.42,2.42,0,0,1,.83-.79,2.25,2.25,0,0,1,1.12-.29,2.22,2.22,0,0,1,1.88,1,2,2,0,0,1,.3,1.08,1.09,1.09,0,0,1-.15.65.6.6,0,0,1-.37.24,2.44,2.44,0,0,1-.48,0h-2.5v.34a1.23,1.23,0,0,0,.46,1,1.82,1.82,0,0,0,1.17.36,1.59,1.59,0,0,0,.67-.11c.16-.08.3-.15.41-.22a.53.53,0,0,1,.28-.11.32.32,0,0,1,.21.08.37.37,0,0,1,.13.17.45.45,0,0,1,0,.18.52.52,0,0,1-.21.34,2.08,2.08,0,0,1-.62.33A3,3,0,0,1,1103,566.31Zm-1.59-3.15h2.1a.76.76,0,0,0,.41-.07.37.37,0,0,0,.09-.29,1.23,1.23,0,0,0-.16-.63,1.38,1.38,0,0,0-.46-.47,1.27,1.27,0,0,0-.67-.18,1.31,1.31,0,0,0-.65.16,1.38,1.38,0,0,0-.48.45,1.16,1.16,0,0,0-.18.63Z"/><path class="cls-7" d="M1106.76,566.22a.52.52,0,0,1-.33-.11.32.32,0,0,1-.13-.23v-4.71a.29.29,0,0,1,.13-.24.58.58,0,0,1,.33-.09.55.55,0,0,1,.32.09.29.29,0,0,1,.12.24v.53a1.78,1.78,0,0,1,.34-.45,1.69,1.69,0,0,1,.51-.34,1.34,1.34,0,0,1,.64-.14h.38a.34.34,0,0,1,.26.12.49.49,0,0,1,.11.31.48.48,0,0,1-.11.3.34.34,0,0,1-.26.12h-.38a1.32,1.32,0,0,0-.69.2,1.59,1.59,0,0,0-.54.58,1.75,1.75,0,0,0-.21.89v2.59a.29.29,0,0,1-.15.23A.55.55,0,0,1,1106.76,566.22Z"/><path class="cls-7" d="M1112.39,566.22a2.11,2.11,0,0,1-1.4-.41,1.6,1.6,0,0,1-.49-1.31v-5.84a.27.27,0,0,1,.15-.24.62.62,0,0,1,.32-.09.63.63,0,0,1,.33.09.27.27,0,0,1,.15.24v2.18h1.43a.25.25,0,0,1,.21.11.56.56,0,0,1,.07.26.53.53,0,0,1-.07.26.24.24,0,0,1-.21.1h-1.43v2.93a.92.92,0,0,0,.21.69,1.06,1.06,0,0,0,.73.2h.35a.39.39,0,0,1,.31.12.51.51,0,0,1,.1.29.53.53,0,0,1-.1.29.39.39,0,0,1-.31.13Z"/><path class="cls-7" d="M1116.6,566.31a2.9,2.9,0,0,1-1.31-.28,2.22,2.22,0,0,1-.89-.77,2,2,0,0,1-.33-1.15v-1.2a1.9,1.9,0,0,1,.31-1.06,2.39,2.39,0,0,1,.82-.79,2.29,2.29,0,0,1,1.13-.29,2.22,2.22,0,0,1,1.08.27,2.27,2.27,0,0,1,.8.74,2,2,0,0,1,.3,1.08,1.09,1.09,0,0,1-.15.65.6.6,0,0,1-.38.24,2.42,2.42,0,0,1-.47,0H1115v.34a1.25,1.25,0,0,0,.45,1,1.85,1.85,0,0,0,1.17.36,1.56,1.56,0,0,0,.67-.11,2.94,2.94,0,0,0,.41-.22.55.55,0,0,1,.29-.11.32.32,0,0,1,.21.08.46.46,0,0,1,.17.35.52.52,0,0,1-.21.34,2.21,2.21,0,0,1-.62.33A3,3,0,0,1,1116.6,566.31Zm-1.59-3.15h2.1a.72.72,0,0,0,.4-.07.34.34,0,0,0,.1-.29,1.34,1.34,0,0,0-.16-.63,1.47,1.47,0,0,0-.46-.47,1.27,1.27,0,0,0-.67-.18,1.31,1.31,0,0,0-1.13.61,1.16,1.16,0,0,0-.18.63Z"/><path class="cls-7" d="M1121.7,566.31a1.81,1.81,0,0,1-1-.31,2.44,2.44,0,0,1-.74-.82,2.27,2.27,0,0,1-.27-1.07V563a2.2,2.2,0,0,1,.27-1.09,2.34,2.34,0,0,1,.74-.79,1.84,1.84,0,0,1,1-.3,1.54,1.54,0,0,1,.92.27,1.77,1.77,0,0,1,.57.59v-3.71a.26.26,0,0,1,.14-.24.62.62,0,0,1,.34-.09.54.54,0,0,1,.33.09.27.27,0,0,1,.13.24v8a.29.29,0,0,1-.13.23.52.52,0,0,1-.64,0,.29.29,0,0,1-.13-.23v-.46a1.48,1.48,0,0,1-.6.62A1.78,1.78,0,0,1,1121.7,566.31Zm.22-.85a1.17,1.17,0,0,0,.66-.2,1.79,1.79,0,0,0,.46-.45.84.84,0,0,0,.17-.4V563a1.32,1.32,0,0,0-.19-.71,1.37,1.37,0,0,0-.48-.45,1.25,1.25,0,0,0-.61-.17,1.13,1.13,0,0,0-.65.19,1.4,1.4,0,0,0-.47.5,1.27,1.27,0,0,0-.18.64v1.16a1.27,1.27,0,0,0,.18.64,1.22,1.22,0,0,0,.47.51A1.13,1.13,0,0,0,1121.92,565.46Z"/><path class="cls-7" d="M1128.64,558.57h4.12v.83h-3.13v2.54h2.9v.82h-2.9v3.46h-1Z"/><path class="cls-7" d="M1139.1,563.42a2.69,2.69,0,0,1-2.74,2.92,2.61,2.61,0,0,1-2.63-2.82,2.68,2.68,0,0,1,2.72-2.92A2.6,2.6,0,0,1,1139.1,563.42Zm-4.36.06c0,1.21.69,2.11,1.67,2.11s1.67-.89,1.67-2.13c0-.93-.47-2.11-1.65-2.11S1134.74,562.44,1134.74,563.48Z"/><path class="cls-7" d="M1140.7,562.44c0-.65,0-1.21,0-1.72h.88l0,1.08h0a1.64,1.64,0,0,1,1.52-1.2,1.2,1.2,0,0,1,.28,0v.94a1.65,1.65,0,0,0-.34,0,1.4,1.4,0,0,0-1.34,1.28,3.3,3.3,0,0,0,0,.47v2.93h-1Z"/><path class="cls-7" d="M1150.54,566.22l-.08-.69h0a2.06,2.06,0,0,1-1.68.81,1.56,1.56,0,0,1-1.68-1.58c0-1.32,1.18-2,3.3-2v-.11a1.13,1.13,0,0,0-1.25-1.27,2.75,2.75,0,0,0-1.43.41l-.23-.66a3.41,3.41,0,0,1,1.81-.49c1.68,0,2.09,1.15,2.09,2.25v2a7.61,7.61,0,0,0,.09,1.32Zm-.15-2.81c-1.09,0-2.32.17-2.32,1.24a.88.88,0,0,0,.94,1,1.38,1.38,0,0,0,1.33-.91,1.25,1.25,0,0,0,.05-.32Z"/><path class="cls-7" d="M1156.93,566.22l-1.94-7.65h1l.91,3.87c.23.95.43,1.9.57,2.64h0c.13-.76.37-1.67.63-2.65l1-3.86h1l.93,3.88c.22.91.42,1.82.54,2.62h0c.16-.84.37-1.69.61-2.64l1-3.86h1l-2.17,7.65h-1l-1-4a21.89,21.89,0,0,1-.5-2.49h0a20.7,20.7,0,0,1-.59,2.49l-1.09,4Z"/><path class="cls-7" d="M1165.54,558.16h1v3.43h0a1.86,1.86,0,0,1,.71-.71,2.08,2.08,0,0,1,1-.28c.74,0,1.92.45,1.92,2.35v3.27h-1v-3.16c0-.88-.33-1.63-1.27-1.63a1.43,1.43,0,0,0-1.34,1,1.31,1.31,0,0,0-.06.47v3.32h-1Z"/><path class="cls-7" d="M1173.29,559.18a.62.62,0,0,1-1.24,0,.62.62,0,0,1,.63-.63A.6.6,0,0,1,1173.29,559.18Zm-1.11,7v-5.5h1v5.5Z"/><path class="cls-7" d="M1175.17,558.16h1v8.06h-1Z"/><path class="cls-7" d="M1178.75,563.65a1.76,1.76,0,0,0,1.88,1.91,3.73,3.73,0,0,0,1.52-.28l.17.71a4.4,4.4,0,0,1-1.82.34,2.55,2.55,0,0,1-2.71-2.77,2.67,2.67,0,0,1,2.58-3,2.33,2.33,0,0,1,2.27,2.59,4.19,4.19,0,0,1,0,.46Zm2.93-.71a1.43,1.43,0,0,0-1.39-1.63,1.65,1.65,0,0,0-1.53,1.63Z"/><path class="cls-7" d="M1183.85,565.63a.68.68,0,1,1,1.35,0,.68.68,0,1,1-1.35,0Z"/><path class="cls-7" d="M983.68,576.66a11.25,11.25,0,0,1,1.89-.15,3.15,3.15,0,0,1,2.15.64,2,2,0,0,1,.67,1.6,2.27,2.27,0,0,1-.59,1.63,3.18,3.18,0,0,1-2.34.84,3.26,3.26,0,0,1-.8-.07v3.07h-1Zm1,3.69a3.72,3.72,0,0,0,.82.08c1.19,0,1.92-.58,1.92-1.64s-.72-1.5-1.81-1.5a4.49,4.49,0,0,0-.93.08Z"/><path class="cls-7" d="M990,576.16h1v8.06h-1Z"/><path class="cls-7" d="M993.54,581.65a1.76,1.76,0,0,0,1.88,1.91,3.82,3.82,0,0,0,1.53-.28l.17.71a4.49,4.49,0,0,1-1.83.34,2.55,2.55,0,0,1-2.7-2.77c0-1.66,1-3,2.57-3a2.33,2.33,0,0,1,2.27,2.59,4.19,4.19,0,0,1,0,.46Zm2.93-.71a1.43,1.43,0,0,0-1.39-1.63,1.65,1.65,0,0,0-1.53,1.63Z"/><path class="cls-7" d="M1002.05,584.22l-.08-.69h0a2.06,2.06,0,0,1-1.68.81,1.57,1.57,0,0,1-1.68-1.58c0-1.32,1.18-2,3.3-2v-.11a1.13,1.13,0,0,0-1.25-1.27,2.75,2.75,0,0,0-1.43.41l-.22-.66a3.34,3.34,0,0,1,1.8-.49c1.68,0,2.09,1.15,2.09,2.25v2a7.61,7.61,0,0,0,.09,1.32Zm-.14-2.81c-1.09,0-2.33.17-2.33,1.24a.88.88,0,0,0,.94,1,1.37,1.37,0,0,0,1.33-.91,1.28,1.28,0,0,0,.06-.32Z"/><path class="cls-7" d="M1004.69,583.2a2.6,2.6,0,0,0,1.31.39c.73,0,1.07-.36,1.07-.81s-.28-.74-1-1c-1-.36-1.45-.9-1.45-1.56a1.69,1.69,0,0,1,1.89-1.61,2.73,2.73,0,0,1,1.35.34l-.25.73a2.07,2.07,0,0,0-1.12-.32c-.59,0-.92.34-.92.75s.33.66,1,.93c1,.36,1.45.84,1.45,1.66s-.75,1.64-2.06,1.64a3.18,3.18,0,0,1-1.54-.37Z"/><path class="cls-7" d="M1010.22,581.65a1.76,1.76,0,0,0,1.88,1.91,3.73,3.73,0,0,0,1.52-.28l.17.71a4.42,4.42,0,0,1-1.83.34,2.55,2.55,0,0,1-2.7-2.77,2.67,2.67,0,0,1,2.58-3,2.33,2.33,0,0,1,2.27,2.59,4.19,4.19,0,0,1,0,.46Zm2.92-.71a1.42,1.42,0,0,0-1.38-1.63,1.65,1.65,0,0,0-1.53,1.63Z"/><path class="cls-7" d="M1018.47,576.67a9.58,9.58,0,0,1,1.8-.16,3.12,3.12,0,0,1,2.1.56,1.58,1.58,0,0,1,.64,1.35,1.83,1.83,0,0,1-1.3,1.68v0a2,2,0,0,1,1.58,1.92,2.06,2.06,0,0,1-.64,1.53,3.86,3.86,0,0,1-2.65.72,12.58,12.58,0,0,1-1.53-.09Zm1,3.13h.89c1,0,1.66-.54,1.66-1.28,0-.9-.68-1.25-1.68-1.25a3.79,3.79,0,0,0-.87.07Zm0,3.67a5.9,5.9,0,0,0,.83,0c1,0,2-.37,2-1.48s-.9-1.48-2-1.48h-.81Z"/><path class="cls-7" d="M1025.53,581.65a1.76,1.76,0,0,0,1.88,1.91,3.73,3.73,0,0,0,1.52-.28l.17.71a4.4,4.4,0,0,1-1.82.34,2.54,2.54,0,0,1-2.7-2.77c0-1.66,1-3,2.57-3a2.33,2.33,0,0,1,2.27,2.59,4.19,4.19,0,0,1,0,.46Zm2.93-.71a1.43,1.43,0,0,0-1.39-1.63,1.65,1.65,0,0,0-1.53,1.63Z"/><path class="cls-7" d="M1033.78,576.66a11.38,11.38,0,0,1,1.9-.15,3.12,3.12,0,0,1,2.14.64,2,2,0,0,1,.67,1.6,2.23,2.23,0,0,1-.59,1.63,3.15,3.15,0,0,1-2.34.84,3.23,3.23,0,0,1-.79-.07v3.07h-1Zm1,3.69a3.66,3.66,0,0,0,.82.08c1.19,0,1.91-.58,1.91-1.64s-.71-1.5-1.8-1.5a4.49,4.49,0,0,0-.93.08Z"/><path class="cls-7" d="M1042.87,584.22l-.08-.69h0a2.06,2.06,0,0,1-1.68.81,1.57,1.57,0,0,1-1.68-1.58c0-1.32,1.18-2,3.3-2v-.11a1.12,1.12,0,0,0-1.24-1.27,2.76,2.76,0,0,0-1.44.41l-.22-.66a3.34,3.34,0,0,1,1.8-.49c1.68,0,2.09,1.15,2.09,2.25v2a7.61,7.61,0,0,0,.09,1.32Zm-.14-2.81c-1.09,0-2.33.17-2.33,1.24a.88.88,0,0,0,.94,1,1.37,1.37,0,0,0,1.33-.91,1.28,1.28,0,0,0,.06-.32Z"/><path class="cls-7" d="M1046.8,577.15v1.57h1.43v.76h-1.43v3c0,.68.2,1.06.75,1.06a2.49,2.49,0,0,0,.58-.06l0,.75a2.75,2.75,0,0,1-.89.13,1.41,1.41,0,0,1-1.08-.42,2,2,0,0,1-.38-1.43v-3H1045v-.76h.86v-1.31Z"/><path class="cls-7" d="M1050.81,577.18a.62.62,0,0,1-1.24,0,.62.62,0,0,1,.63-.63A.6.6,0,0,1,1050.81,577.18Zm-1.11,7v-5.5h1v5.5Z"/><path class="cls-7" d="M1053.25,581.65a1.76,1.76,0,0,0,1.88,1.91,3.82,3.82,0,0,0,1.53-.28l.17.71a4.49,4.49,0,0,1-1.83.34,2.55,2.55,0,0,1-2.7-2.77c0-1.66,1-3,2.57-3a2.33,2.33,0,0,1,2.27,2.59,4.19,4.19,0,0,1,0,.46Zm2.93-.71a1.43,1.43,0,0,0-1.39-1.63,1.65,1.65,0,0,0-1.53,1.63Z"/><path class="cls-7" d="M1058.72,580.21c0-.57,0-1,0-1.49h.88l.06.91h0a2,2,0,0,1,1.82-1c.76,0,1.94.45,1.94,2.34v3.28h-1v-3.17c0-.88-.33-1.62-1.27-1.62a1.41,1.41,0,0,0-1.34,1,1.27,1.27,0,0,0-.07.46v3.31h-1Z"/><path class="cls-7" d="M1066.52,577.15v1.57H1068v.76h-1.43v3c0,.68.19,1.06.75,1.06a2.56,2.56,0,0,0,.58-.06l0,.75a2.68,2.68,0,0,1-.88.13,1.39,1.39,0,0,1-1.08-.42,2,2,0,0,1-.39-1.43v-3h-.85v-.76h.85v-1.31Z"/><path class="cls-7" d="M1077.13,581.42a2.68,2.68,0,0,1-2.73,2.92,2.61,2.61,0,0,1-2.64-2.82,2.69,2.69,0,0,1,2.73-2.92A2.6,2.6,0,0,1,1077.13,581.42Zm-4.36.06c0,1.21.7,2.11,1.67,2.11s1.67-.89,1.67-2.13c0-.93-.46-2.11-1.64-2.11S1072.77,580.44,1072.77,581.48Z"/><path class="cls-7" d="M1078.74,580.44c0-.65,0-1.21,0-1.72h.87l0,1.08h0a1.64,1.64,0,0,1,1.52-1.2,1.23,1.23,0,0,1,.29,0v.94a1.72,1.72,0,0,0-.34,0,1.39,1.39,0,0,0-1.34,1.28,3.23,3.23,0,0,0,0,.47v2.93h-1Z"/><path class="cls-7" d="M1086.55,577.41h-2.32v-.84h5.66v.84h-2.34v6.81h-1Z"/><path class="cls-7" d="M1090.54,580.44c0-.65,0-1.21,0-1.72h.88l0,1.08h0a1.64,1.64,0,0,1,1.52-1.2,1.2,1.2,0,0,1,.28,0v.94a1.65,1.65,0,0,0-.34,0,1.4,1.4,0,0,0-1.34,1.28,3.3,3.3,0,0,0,0,.47v2.93h-1Z"/><path class="cls-7" d="M1095.24,578.72l1.2,3.25c.13.36.26.79.35,1.12h0c.1-.33.21-.75.35-1.14l1.09-3.23h1.06l-1.5,3.92c-.72,1.88-1.21,2.85-1.89,3.44a2.78,2.78,0,0,1-1.22.65l-.25-.84a2.59,2.59,0,0,0,.87-.49,3.12,3.12,0,0,0,.84-1.11.45.45,0,0,0,0-.5l-2-5.07Z"/><path class="cls-7" d="M1104.58,581.81l-.79,2.41h-1l2.6-7.65h1.19l2.61,7.65h-1.06l-.82-2.41Zm2.51-.77-.75-2.2c-.17-.5-.28-1-.4-1.4h0c-.11.45-.24.92-.38,1.39l-.75,2.21Z"/><path class="cls-7" d="M1115.2,578.72c0,.4,0,.84,0,1.51v3.19a3.17,3.17,0,0,1-.78,2.51,2.93,2.93,0,0,1-2,.66,3.59,3.59,0,0,1-1.83-.45l.25-.76a3.15,3.15,0,0,0,1.61.43c1,0,1.77-.54,1.77-1.92v-.61h0a2,2,0,0,1-1.75.92,2.46,2.46,0,0,1-2.34-2.68,2.64,2.64,0,0,1,2.48-2.92,1.83,1.83,0,0,1,1.71.95h0l0-.83Zm-1,2.17a1.55,1.55,0,0,0-.05-.45,1.45,1.45,0,0,0-1.4-1.06c-1,0-1.64.81-1.64,2.08,0,1.08.55,2,1.63,2a1.44,1.44,0,0,0,1.38-1,1.63,1.63,0,0,0,.08-.53Z"/><path class="cls-7" d="M1120.19,584.22l-.08-.69h0a2.06,2.06,0,0,1-1.68.81,1.56,1.56,0,0,1-1.68-1.58c0-1.32,1.18-2,3.3-2v-.11a1.13,1.13,0,0,0-1.25-1.27,2.75,2.75,0,0,0-1.43.41l-.23-.66a3.41,3.41,0,0,1,1.81-.49c1.68,0,2.09,1.15,2.09,2.25v2a7.61,7.61,0,0,0,.09,1.32Zm-.15-2.81c-1.09,0-2.32.17-2.32,1.24a.88.88,0,0,0,.94,1,1.38,1.38,0,0,0,1.33-.91,1.25,1.25,0,0,0,0-.32Z"/><path class="cls-7" d="M1124.07,577.18a.59.59,0,0,1-.63.61.59.59,0,0,1-.61-.61.62.62,0,0,1,.63-.63A.6.6,0,0,1,1124.07,577.18Zm-1.11,7v-5.5h1v5.5Z"/><path class="cls-7" d="M1126,580.21c0-.57,0-1,0-1.49h.89l0,.91h0a2,2,0,0,1,1.81-1c.76,0,1.94.45,1.94,2.34v3.28h-1v-3.17c0-.88-.32-1.62-1.27-1.62a1.42,1.42,0,0,0-1.34,1,1.56,1.56,0,0,0-.06.46v3.31h-1Z"/><path class="cls-7" d="M1135.38,576.57h1v6.82h3.26v.83h-4.25Z"/><path class="cls-7" d="M1144.08,584.22l-.08-.69h0a2.06,2.06,0,0,1-1.68.81,1.57,1.57,0,0,1-1.68-1.58c0-1.32,1.18-2,3.3-2v-.11a1.12,1.12,0,0,0-1.24-1.27,2.76,2.76,0,0,0-1.44.41l-.22-.66a3.34,3.34,0,0,1,1.8-.49c1.68,0,2.09,1.15,2.09,2.25v2a7.61,7.61,0,0,0,.09,1.32Zm-.14-2.81c-1.09,0-2.33.17-2.33,1.24a.88.88,0,0,0,.94,1,1.37,1.37,0,0,0,1.33-.91,1.28,1.28,0,0,0,.06-.32Z"/><path class="cls-7" d="M1148,577.15v1.57h1.43v.76H1148v3c0,.68.2,1.06.75,1.06a2.49,2.49,0,0,0,.58-.06l.05.75a2.75,2.75,0,0,1-.89.13,1.41,1.41,0,0,1-1.08-.42,2,2,0,0,1-.38-1.43v-3h-.86v-.76h.86v-1.31Z"/><path class="cls-7" d="M1151.39,581.65a1.77,1.77,0,0,0,1.89,1.91,3.76,3.76,0,0,0,1.52-.28l.17.71a4.42,4.42,0,0,1-1.83.34,2.55,2.55,0,0,1-2.7-2.77,2.67,2.67,0,0,1,2.58-3,2.33,2.33,0,0,1,2.27,2.59,2.43,2.43,0,0,1,0,.46Zm2.93-.71a1.43,1.43,0,0,0-1.38-1.63,1.65,1.65,0,0,0-1.53,1.63Z"/><path class="cls-7" d="M1156.87,580.44c0-.65,0-1.21,0-1.72h.87l0,1.08h0a1.65,1.65,0,0,1,1.52-1.2,1.23,1.23,0,0,1,.29,0v.94a1.65,1.65,0,0,0-.34,0,1.4,1.4,0,0,0-1.34,1.28,3.23,3.23,0,0,0-.05.47v2.93h-1Z"/><path class="cls-7" d="M1160.08,583.63a.67.67,0,0,1,.68-.72.72.72,0,1,1-.68.72Z"/><path class="cls-7" d="M849.68,552.14q0,10.11-5.46,15.92T829,573.88a21.82,21.82,0,0,1-12-3.14,18.73,18.73,0,0,1-2.2-1.67,18.42,18.42,0,0,1-2.08-2.16,20.07,20.07,0,0,1-4.17-11.13h7.86q.77,5.61,4,8.46A12.4,12.4,0,0,0,829,567.1a11.19,11.19,0,0,0,9.09-4q3.3-3.95,3.31-10.91,0-6.56-3.58-10.54a12.13,12.13,0,0,0-9.5-4c-3.62,0-6.47.79-8.53,2.38l-2.2,1.8-6.65-1.71L813.78,512l.45-4.42h33.51v7.68H821.29l-2,17.83a21,21,0,0,1,10.91-2.83q8.94,0,14.2,5.91T849.68,552.14Z"/><path class="cls-7" d="M894.64,513.44a15.19,15.19,0,0,0-4.08-3.84,20.74,20.74,0,0,0-11.46-2.92q-10.65,0-15.63,7a23.58,23.58,0,0,0-3.51,8,53.34,53.34,0,0,0-1.48,13.45v11.1q.18,13.78,5.21,20.73t15.5,6.94q10.6,0,15.59-7.1t5-21.69V534.3Q899.63,520.2,894.64,513.44Zm-3.19,33.89q-.13,10.24-3.12,15t-9.14,4.76a10.19,10.19,0,0,1-9.32-5.06q-3.07-5.06-3.08-15.65v-13.3q.09-10,3-14.78t9.3-4.8q6.42,0,9.39,4.82t3,15.39Z"/><path class="cls-7" d="M946.35,513.51l-.05-.07q-5-6.77-15.54-6.76t-15.63,7q-3.35,4.69-4.44,12.7a63,63,0,0,0-.55,8.72v11.1q.18,13.78,5.21,20.73t15.5,6.94q10.6,0,15.59-7.1t5-21.69V534.3Q951.29,520.28,946.35,513.51Zm-3.24,33.82q-.14,10.24-3.12,15t-9.14,4.76a10.19,10.19,0,0,1-9.32-5.06q-3.07-5.06-3.08-15.65v-13.3q.09-10,3-14.78t9.3-4.8q6.42,0,9.39,4.82t3,15.39Z"/></svg>