<?xml version="1.0" encoding="UTF-8"?>
<svg id="a" data-name="Слой 1" xmlns="http://www.w3.org/2000/svg" width="52.81" height="27.71" viewBox="0 0 52.81 27.71">
  <defs>
    <style>
      .b {
        fill: #36799a;
      }

      .b, .c, .d {
        stroke-width: 0px;
      }

      .c {
        fill: #003f4d;
      }

      .d {
        fill: #fff;
      }
    </style>
  </defs>
  <circle class="c" cx="13.86" cy="13.86" r="13.86"/>
  <path class="b" d="m52.81,13.85c0,7.66-6.21,13.86-13.86,13.86-4.52,0-8.53-2.16-11.06-5.51,1.6-2.39,2.53-5.26,2.53-8.35s-.93-5.95-2.53-8.34C30.42,2.16,34.43,0,38.95,0,46.6,0,52.81,6.2,52.81,13.85Z"/>
  <path class="d" d="m13.86,9.15c1.26,0,2.44.49,3.33,1.38.89.89,1.38,2.07,1.38,3.33s-.49,2.44-1.38,3.33-2.07,1.38-3.33,1.38-2.44-.49-3.33-1.38-1.38-2.07-1.38-3.33.49-2.44,1.38-3.33c.89-.89,2.07-1.38,3.33-1.38m0-.86c-3.08,0-5.58,2.5-5.58,5.58s2.5,5.58,5.58,5.58,5.58-2.5,5.58-5.58-2.5-5.58-5.58-5.58h0Z"/>
  <path class="d" d="m20.7,18.42c-.3.45-.64.86-1.02,1.25-.52.52-1.1.96-1.72,1.32l-4.25-4.36v5.45c-1.02-.02-2.02-.18-2.84-.57V6.26c.82-.39,1.81-.6,2.84-.62v5.58l4.19-4.53c.65.37,1.25.82,1.78,1.35.34.34.64.7.91,1.08l-4.34,4.72,4.45,4.57h0Z"/>
  <path class="d" d="m20.81,18.53c-1.51,2.24-4.06,3.71-6.96,3.71-4.63,0-8.38-3.75-8.38-8.38s3.75-8.38,8.38-8.38c2.82,0,5.32,1.4,6.84,3.53l.83-.9c-1.75-2.33-4.53-3.83-7.67-3.83-5.29,0-9.58,4.29-9.58,9.58s4.29,9.58,9.58,9.58c3.22,0,6.07-1.59,7.81-4.03l-.85-.88h0Z"/>
  <path class="d" d="m13.74,3.96c-.08,0-.16,0-.24,0-.93.03-1.83.19-2.68.46.18-.33.34-.68.45-1.04l1.78-.26c.2.3.44.58.7.84h0Z"/>
  <path class="d" d="m18.13,4.9c-.89-.42-1.86-.71-2.87-.84.31-.22.6-.48.87-.76l1.72.52c.06.37.15.74.29,1.09h0Z"/>
  <path class="d" d="m21.74,6.49c-.1.36-.17.73-.19,1.1-.63-.76-1.38-1.43-2.22-1.97.36-.07.72-.18,1.06-.33l1.35,1.19Z"/>
  <path class="d" d="m19.98,14.32c-.18.08-.34.19-.49.3.08-.51.08-1.02,0-1.53.15.12.32.22.49.3v.93s0,0,0,0Z"/>
  <path class="d" d="m19.82,12.37c-.14.14-.26.28-.37.44-.09-.51-.25-1-.49-1.45.18.06.37.1.56.13l.3.88h0Z"/>
  <path class="d" d="m19.83,15.36c-.14-.13-.27-.28-.38-.44-.08.51-.24,1-.47,1.46.18-.06.37-.11.56-.13l.29-.89Z"/>
  <path class="d" d="m21.9,21.05l-1.31,1.23c-.35-.14-.71-.23-1.08-.29.82-.56,1.55-1.25,2.16-2.02.04.37.11.73.23,1.08h0Z"/>
  <path class="d" d="m18.27,22.75c-.14.35-.23.72-.29,1.09l-1.72.51c-.25-.27-.52-.52-.82-.74,1-.15,1.96-.44,2.84-.87h0Z"/>
  <path class="d" d="m13.72,23.78c-.26.25-.5.53-.71.83l-1.78-.28c-.11-.37-.26-.72-.44-1.05.81.27,1.67.43,2.57.48.12,0,.24.01.36.01Z"/>
  <path class="d" d="m9.12,22.55c-.35.11-.69.25-1.01.42l-1.46-1.05c.07-.38.1-.76.08-1.14.6.61,1.3,1.15,2.07,1.59.1.06.21.12.31.17h0Z"/>
  <path class="d" d="m5.7,19.47c-.35-.06-.71-.08-1.07-.07l-.84-1.59c.23-.31.43-.64.59-.99.3.94.75,1.84,1.32,2.65Z"/>
  <path class="d" d="m4.06,15.19c-.29-.23-.61-.43-.95-.59v-1.8c.34-.15.65-.34.94-.55-.15,1-.14,1.99,0,2.94Z"/>
  <path class="d" d="m5.87,8.01c-.59.78-1.07,1.66-1.41,2.62-.15-.34-.34-.67-.56-.97l.85-1.58c.38.02.75,0,1.12-.06h0Z"/>
  <path class="d" d="m9.31,5.04c-.87.45-1.67,1.03-2.38,1.73,0-.36-.03-.72-.09-1.08l1.45-1.07c.33.17.67.31,1.02.42h0Z"/>
  <circle class="d" cx="9.72" cy="9.39" r=".37"/>
  <path class="d" d="m6.4,13.86c0,2.9,1.66,5.42,4.08,6.65v-.99c-.46-.28-.89-.61-1.28-1-1.24-1.24-1.93-2.9-1.93-4.66s.69-3.42,1.93-4.66c.39-.39.82-.73,1.28-1v-.99c-2.42,1.23-4.08,3.75-4.08,6.65h0Z"/>
  <circle class="d" cx="9.72" cy="18.31" r=".37"/>
  <path class="c" d="m22.24,13.86c0-2.41-1.02-4.58-2.64-6.11l.84-.89-.15-.13-.83.89c-1.49-1.33-3.45-2.14-5.6-2.14-4.63,0-8.38,3.75-8.38,8.38s3.75,8.38,8.38,8.38c2.19,0,4.18-.84,5.68-2.21l.85.88.14-.14-.85-.88c1.58-1.52,2.56-3.66,2.56-6.03Zm-.9-3.16c.42,1,.63,2.06.63,3.16s-.21,2.16-.63,3.16c-.16.38-.35.74-.57,1.09l-4.15-4.26,4.05-4.41c.26.4.48.82.67,1.26Zm-7.38-4.96c1.06.02,2.09.23,3.06.64.19.08.37.17.56.26l-3.62,3.91v-4.81Zm-3.09.57c.9-.36,1.85-.55,2.82-.56v5.48l4.13-4.46c.52.29,1,.64,1.45,1.04l-5.63,6h-2.77v-7.5Zm-.27,14.98l-.12-.05c-.12-.06-.24-.12-.36-.18l-.27-.14c-.63-.36-1.21-.8-1.73-1.32-.74-.75-1.33-1.62-1.74-2.58-.42-1-.64-2.07-.64-3.16s.22-2.16.64-3.16c.41-.97,1-1.83,1.74-2.58.52-.52,1.1-.96,1.73-1.32l.27-.15c.12-.06.24-.12.36-.17l.12-.06v14.87Zm6.42.05c-.97.4-1.99.62-3.05.63v-4.69l3.67,3.76c-.2.11-.41.21-.62.3Zm.86-.43l-4.16-4.27h-.02v5.33c-.98-.02-1.93-.21-2.83-.57v-7.41h2.77l5.71,5.84c-.45.42-.94.78-1.47,1.08Zm1.61-1.21l-5.66-5.81,5.59-5.94c.06.05.12.11.18.17.34.34.64.71.92,1.1l-4.26,4.63,4.37,4.49c-.3.45-.65.87-1.03,1.26-.04.04-.07.07-.11.1Z"/>
  <circle class="d" cx="7.81" cy="13.9" r=".37"/>
  <circle class="d" cx="8.3" cy="11.36" r=".37"/>
  <circle class="d" cx="8.3" cy="16.34" r=".37"/>
  <path class="d" d="m37.49,9.53c-.15-.35-.53-.54-.89-.44l-1.66.45c-.33.09-.56.39-.56.73,0,4.67,3.78,8.45,8.45,8.45.34,0,.64-.23.73-.56l.45-1.66c.1-.37-.09-.75-.44-.89l-1.81-.75c-.31-.13-.66-.04-.87.22l-.76.93c-1.33-.63-2.4-1.7-3.03-3.03l.93-.76c.26-.21.35-.57.22-.87l-.75-1.81h0Z"/>
</svg>