<svg id="Слой_1" data-name="Слой 1" xmlns="http://www.w3.org/2000/svg" xmlns:xlink="http://www.w3.org/1999/xlink" viewBox="0 0 510.24 510.24"><defs><style>.cls-1{fill:#e3131b;}.cls-2{fill:url(#Безымянный_градиент_48);}.cls-3{fill:#fff;}</style><radialGradient id="Безымянный_градиент_48" cx="255.12" cy="256.64" r="255.12" gradientTransform="matrix(1, 0, 0, -1, 0, 511.76)" gradientUnits="userSpaceOnUse"><stop offset="0" stop-color="#fff" stop-opacity="0"/><stop offset="0.32" stop-color="#f3f3f3" stop-opacity="0.03"/><stop offset="0.61" stop-color="#cfcfcf" stop-opacity="0.13"/><stop offset="0.87" stop-color="#929292" stop-opacity="0.3"/><stop offset="1" stop-color="#6c6c6c" stop-opacity="0.4"/></radialGradient></defs><path class="cls-1" d="M510.24,255.12C510.24,392.72,401.31,504.86,265,510H245.26C108.93,504.86,0,392.72,0,255.12,0,114.22,114.22,0,255.12,0S510.24,114.22,510.24,255.12Z"/><circle class="cls-2" cx="255.12" cy="255.12" r="255.12"/><path class="cls-3" d="M286.25,330.89a102,102,0,1,1,7.69-144,127.51,127.51,0,1,0,0,136.37A103.19,103.19,0,0,1,286.25,330.89ZM401.41,217.55l-44.06,14.31-27.23-37.47v46.32L286.07,255l44.05,14.31v46.33l27.24-37.48,44.05,14.31L374.18,255Z"/></svg>