<?xml version="1.0" encoding="utf-8"?>
<!-- Generator: Adobe Illustrator 28.0.0, SVG Export Plug-In . SVG Version: 6.00 Build 0)  -->
<svg version="1.1" id="Слой_1" xmlns="http://www.w3.org/2000/svg" xmlns:xlink="http://www.w3.org/1999/xlink" x="0px" y="0px"
	 viewBox="0 0 510.2 510.2" style="enable-background:new 0 0 510.2 510.2;" xml:space="preserve">
<style type="text/css">
	.st0{fill:#B31942;}
	.st1{fill:#FFFFFF;}
	.st2{fill:#0A3161;}
	.st3{fill:url(#SVGID_1_);}
</style>
<g>
	<path class="st0" d="M510.2,255.1c0,7.9-0.4,15.7-1.1,23.4c-0.6,6.8-1.5,13.4-2.6,20c-1.2,6.8-2.6,13.4-4.3,20
		c-3.5,13.8-8.2,27.2-13.9,40.1c-3,6.8-6.4,13.5-10,20c-3.8,6.9-7.9,13.6-12.3,20c-9.9,14.5-21.2,27.9-33.8,40.1
		c-7.4,7.1-15.2,13.8-23.4,20c-9.8,7.4-20.1,14.1-30.9,20c-36.4,20-78.2,31.4-122.7,31.4s-86.3-11.4-122.7-31.4
		c-10.8-5.9-21.2-12.6-30.9-20c-8.2-6.2-16.1-12.9-23.4-20c-12.6-12.2-23.9-25.6-33.9-40.1c-4.4-6.5-8.5-13.2-12.3-20
		c-3.6-6.5-6.9-13.2-10-20c-5.7-12.8-10.4-26.2-13.9-40.1c-1.7-6.6-3.1-13.3-4.3-20c-1.1-6.6-2-13.3-2.6-20v0
		C0.4,270.8,0,263,0,255.1c0-5.6,0.2-11.2,0.5-16.7c0.4-6.8,1.1-13.4,2.1-20c1-6.8,2.2-13.4,3.7-20c3.1-13.8,7.4-27.2,12.7-40.1
		c1.2-2.9,2.4-5.7,3.7-8.6c1.2-2.7,2.5-5.3,3.8-8c0.6-1.2,1.2-2.4,1.8-3.5c0.9-1.7,1.7-3.3,2.6-5c0.6-1.1,1.2-2.1,1.8-3.2
		c2.3-4,4.7-8,7.1-11.9c2.7-4.3,5.6-8.5,8.6-12.6l-0.5-0.4h0.8c6.9-9.6,14.5-18.6,22.7-27.1c6.8-7.1,14-13.8,21.6-20
		c8.8-7.3,18.2-14,28-20c9.1-5.6,18.5-10.7,28.3-15.2c1.3-0.6,2.7-1.2,4-1.8c2-0.9,3.9-1.7,5.9-2.5h0c1.6-0.7,3.3-1.3,4.9-2
		C192.4,5.9,223.1,0,255.1,0c36,0,70.3,7.5,101.3,20.9c0.2,0.1,0.3,0.2,0.5,0.2c2.6,1.1,5.2,2.3,7.8,3.5c1.1,0.5,2.2,1.1,3.4,1.6
		c7.3,3.6,14.4,7.5,21.2,11.8c1.2,0.8,2.4,1.5,3.6,2.3c8.5,5.4,16.6,11.4,24.3,17.7c7.6,6.3,14.8,13,21.6,20
		c11.8,12.2,22.4,25.7,31.6,40.1c4.1,6.5,8,13.2,11.5,20c3.4,6.5,6.4,13.2,9.2,20c5.3,12.9,9.5,26.3,12.7,40.1
		c1.5,6.6,2.7,13.3,3.7,20c1,6.6,1.7,13.3,2.1,20C510.1,244,510.2,249.5,510.2,255.1z"/>
	<path class="st1" d="M1.1,278.5c0.6,6.8,1.5,13.4,2.6,20c1.2,6.8,2.6,13.4,4.3,20h494.3c1.7-6.6,3.1-13.3,4.3-20
		c1.1-6.6,2-13.3,2.6-20H1.1z M78.1,438.8c7.4,7.1,15.2,13.8,23.4,20c9.8,7.4,20.1,14.1,30.9,20h245.3c10.8-5.9,21.2-12.6,30.9-20
		c8.2-6.2,16-12.9,23.4-20H78.1z M21.9,358.7c3,6.8,6.4,13.5,10,20c3.8,6.9,7.9,13.6,12.3,20H466c4.4-6.5,8.5-13.2,12.3-20
		c3.6-6.5,6.9-13.2,10-20H21.9z M507.6,218.4c-1-6.8-2.2-13.5-3.7-20H6.3c-1.5,6.6-2.7,13.3-3.7,20c-1,6.6-1.7,13.3-2.1,20h509.2
		C509.3,231.7,508.6,225,507.6,218.4z M482,138.3c-3.5-6.9-7.4-13.5-11.5-20H39.8c-2.5,3.9-4.9,7.9-7.1,11.9c-0.6,1-1.2,2.1-1.8,3.2
		c-0.9,1.6-1.8,3.3-2.6,5c-0.6,1.2-1.2,2.3-1.8,3.5c-1.3,2.6-2.6,5.3-3.8,8c-1.3,2.8-2.5,5.7-3.7,8.6h472.2
		C488.4,151.5,485.3,144.8,482,138.3z M417.3,58.1c-7.7-6.4-15.8-12.3-24.3-17.7c-1.2-0.8-2.4-1.5-3.6-2.3H120.9
		c-9.8,6-19.1,12.8-28,20c-7.6,6.3-14.8,12.9-21.6,20h367.5C432.1,71.1,424.9,64.4,417.3,58.1z"/>
	<path class="st2" d="M393,40.4v238.1H1.1C0.4,270.8,0,263,0,255.1c0-5.6,0.2-11.2,0.5-16.7c0.4-6.8,1.1-13.4,2.1-20
		c1-6.8,2.2-13.4,3.7-20c3.1-13.8,7.4-27.2,12.7-40.1c1.2-2.9,2.4-5.7,3.7-8.6c1.2-2.7,2.5-5.3,3.8-8c0.6-1.2,1.2-2.4,1.8-3.5
		c0.9-1.7,1.7-3.3,2.6-5c0.6-1.1,1.2-2.1,1.8-3.2c2.3-4,4.7-8,7.1-11.9c2.7-4.3,5.6-8.5,8.6-12.6l-0.5-0.4h0.8
		c6.9-9.6,14.5-18.6,22.7-27.1c6.8-7.1,14-13.8,21.6-20c8.8-7.3,18.2-14,28-20c9.1-5.6,18.5-10.7,28.3-15.2c1.3-0.6,2.7-1.2,4-1.8
		c2-0.9,3.9-1.7,5.9-2.5h0c1.6-0.7,3.3-1.3,4.9-2C192.4,5.9,223.1,0,255.1,0c36,0,70.3,7.5,101.3,20.9c0.2,0.1,0.3,0.2,0.5,0.2
		c2.6,1.1,5.2,2.3,7.8,3.5c1.1,0.5,2.2,1.1,3.4,1.6c7.3,3.6,14.4,7.5,21.2,11.8C390.6,38.9,391.8,39.6,393,40.4z"/>
	<path class="st1" d="M35.9,140.2l3.6,11.1l-9.4-6.9l-7.4,5.4c1.2-2.7,2.5-5.3,3.8-8c0.6-1.2,1.2-2.4,1.8-3.5c0.9-1.7,1.7-3.3,2.6-5
		c0.6-1.1,1.2-2.1,1.8-3.2l1,3.2h11.6l-6.8,5L35.9,140.2z"/>
	<path id="s_00000114062213125755378390000010455405404121180830_" class="st1" d="M30.1,178.3l9.4,29l-24.7-17.9h30.5l-24.7,17.9
		L30.1,178.3z"/>
	<path id="s_00000163068587843424557340000007554266921619635641_" class="st1" d="M30.1,234.4l9.4,29l-24.7-17.9h30.5l-24.7,17.9
		L30.1,234.4z"/>
	<polygon class="st1" points="68.9,112.1 72.5,123.2 63.1,116.3 53.6,123.2 57.2,112.1 48.3,105.7 47.8,105.3 59.5,105.3 63.1,94.2 
		66.7,105.3 78.3,105.3 	"/>
	<path id="s_00000034053858448975670890000016720881511515500450_" class="st1" d="M63.1,150.3l9.4,29l-24.7-17.9h30.5l-24.7,17.9
		L63.1,150.3z"/>
	<path id="s_00000082328812429233497490000001853462607832738470_" class="st1" d="M63.1,206.4l9.4,29l-24.7-17.9h30.5l-24.7,17.9
		L63.1,206.4z"/>
	<path id="s_00000113314918749343302360000013758519086949649306_" class="st1" d="M96.1,66.2l9.4,29L80.8,77.2h30.5L86.6,95.1
		L96.1,66.2z"/>
	<path id="s_00000007420022985434155050000009014938602271387298_" class="st1" d="M96.1,122.3l9.4,29l-24.7-17.9h30.5l-24.7,17.9
		L96.1,122.3z"/>
	<path id="s_00000132795762495964721680000009279983820096625037_" class="st1" d="M96.1,178.3l9.4,29l-24.7-17.9h30.5l-24.7,17.9
		L96.1,178.3z"/>
	<path id="s_00000168807977925283965970000002176268895971633284_" class="st1" d="M96.1,234.4l9.4,29l-24.7-17.9h30.5l-24.7,17.9
		L96.1,234.4z"/>
	<path id="s_00000059999985745674666000000017383947085376240036_" class="st1" d="M129,38.1l9.4,29l-24.7-17.9h30.5l-24.7,17.9
		L129,38.1z"/>
	<path id="s_00000031168285594299552170000006295158918123989664_" class="st1" d="M129,94.2l9.4,29l-24.7-17.9h30.5l-24.7,17.9
		L129,94.2z"/>
	<path id="s_00000177485413685199714740000001076452524921365433_" class="st1" d="M129,150.3l9.4,29l-24.7-17.9h30.5l-24.7,17.9
		L129,150.3z"/>
	<path id="s_00000014593192578211577670000011513849814181549752_" class="st1" d="M129,206.4l9.4,29l-24.7-17.9h30.5l-24.7,17.9
		L129,206.4z"/>
	<path class="st1" d="M171.1,38.1l0.3,0.9l-1.3-0.9l-8.1-5.9l-8.1,5.9l-1.3,0.9l0.3-0.9l3.3-10.1l-6.9-5c1.3-0.6,2.7-1.2,4-1.8h5.1
		l0.8-2.5h0c1.6-0.7,3.3-1.3,4.9-2l1.5,4.5h11.6l-9.4,6.8L171.1,38.1z"/>
	<path id="s_00000081634657392216959880000008453111000417836734_" class="st1" d="M162,66.2l9.4,29l-24.7-17.9h30.5l-24.7,17.9
		L162,66.2z"/>
	<path id="s_00000100381235178785822680000016998044950597539253_" class="st1" d="M162,122.3l9.4,29l-24.7-17.9h30.5l-24.7,17.9
		L162,122.3z"/>
	<path id="s_00000029013732969095838720000015234501382342845625_" class="st1" d="M162,178.3l9.4,29l-24.7-17.9h30.5l-24.7,17.9
		L162,178.3z"/>
	<path id="s_00000151534925693333983540000010864777621804954287_" class="st1" d="M162,234.4l9.4,29l-24.7-17.9h30.5l-24.7,17.9
		L162,234.4z"/>
	<path id="s_00000055681420027038737560000005031501588845412736_" class="st1" d="M195,38.1l9.4,29l-24.7-17.9h30.5l-24.7,17.9
		L195,38.1z"/>
	<path id="s_00000047039243628203511370000010785600059952817282_" class="st1" d="M195,94.2l9.4,29l-24.7-17.9h30.5l-24.7,17.9
		L195,94.2z"/>
	<path id="s_00000055681761325784649860000014663626005401246641_" class="st1" d="M195,150.3l9.4,29l-24.7-17.9h30.5l-24.7,17.9
		L195,150.3z"/>
	<path id="s_00000074411769590638949550000014591419596478297225_" class="st1" d="M195,206.4l9.4,29l-24.7-17.9h30.5l-24.7,17.9
		L195,206.4z"/>
	<path id="s_00000110456971919859269840000002092863150072153753_" class="st1" d="M228,10.1l9.4,29l-24.7-17.9h30.5l-24.7,17.9
		L228,10.1z"/>
	<g>
		<path id="s_00000111180758511213770640000018230557855898111890_" class="st1" d="M228,66.2l9.4,29l-24.7-17.9h30.5l-24.7,17.9
			L228,66.2z"/>
	</g>
	<g>
		<path id="s_00000089552430230257049320000012813860271578636987_" class="st1" d="M228,122.3l9.4,29l-24.7-17.9h30.5l-24.7,17.9
			L228,122.3z"/>
	</g>
	<g>
		<path id="s_00000161632350493913149930000002533043511431774906_" class="st1" d="M228,178.3l9.4,29l-24.7-17.9h30.5l-24.7,17.9
			L228,178.3z"/>
	</g>
	<path id="s_00000011713852025919690950000001882912785467493531_" class="st1" d="M228,234.4l9.4,29l-24.7-17.9h30.5l-24.7,17.9
		L228,234.4z"/>
	<path id="s_00000073716086548520040710000005997494208953810816_" class="st1" d="M261,38.1l9.4,29l-24.7-17.9h30.5l-24.7,17.9
		L261,38.1z"/>
	<g>
		<path id="s_00000020369169563518790970000010005715688708379290_" class="st1" d="M261,94.2l9.4,29l-24.7-17.9h30.5l-24.7,17.9
			L261,94.2z"/>
	</g>
	<g>
		<path id="s_00000023269396994557255350000017973376324068816039_" class="st1" d="M261,150.3l9.4,29l-24.7-17.9h30.5l-24.7,17.9
			L261,150.3z"/>
	</g>
	<g>
		<path id="s_00000134967937047895584850000017534296162637692323_" class="st1" d="M261,206.4l9.4,29l-24.7-17.9h30.5l-24.7,17.9
			L261,206.4z"/>
	</g>
	<path id="s_00000127021617552890627630000006683152661128728459_" class="st1" d="M294,10.1l9.4,29l-24.7-17.9h30.5l-24.7,17.9
		L294,10.1z"/>
	<path id="s_00000070113942375246777560000014106655722990918071_" class="st1" d="M294,66.2l9.4,29l-24.7-17.9h30.5l-24.7,17.9
		L294,66.2z"/>
	<path id="s_00000051371726088627382540000011331870597853964692_" class="st1" d="M294,122.3l9.4,29l-24.7-17.9h30.5l-24.7,17.9
		L294,122.3z"/>
	<path id="s_00000135651679334421611890000016049495880418991521_" class="st1" d="M294,178.3l9.4,29l-24.7-17.9h30.5l-24.7,17.9
		L294,178.3z"/>
	<path id="s_00000096040051502273287980000013444276428710490799_" class="st1" d="M294,234.4l9.4,29l-24.7-17.9h30.5l-24.7,17.9
		L294,234.4z"/>
	<path id="s_00000119827558714741986430000012852919356773409440_" class="st1" d="M327,38.1l9.4,29l-24.7-17.9h30.5l-24.7,17.9
		L327,38.1z"/>
	<path id="s_00000000914415254461360590000001840850164960334216_" class="st1" d="M327,94.2l9.4,29l-24.7-17.9h30.5l-24.7,17.9
		L327,94.2z"/>
	<path id="s_00000167357509317495912880000002165540034060070835_" class="st1" d="M327,150.3l9.4,29l-24.7-17.9h30.5l-24.7,17.9
		L327,150.3z"/>
	<path id="s_00000175315536848815668520000009505078388314788540_" class="st1" d="M327,206.4l9.4,29l-24.7-17.9h30.5l-24.7,17.9
		L327,206.4z"/>
	<path class="st1" d="M369.4,39l-1.3-0.9l-8.1-5.9l-8.1,5.9l-1.3,0.9l0.3-0.9l3.3-10.1l-9.4-6.8h11.6l0.1-0.2
		c0.2,0.1,0.3,0.2,0.5,0.2c2.6,1.1,5.2,2.3,7.8,3.5c1.1,0.5,2.2,1.1,3.4,1.6l-2.3,1.7l3.3,10.1L369.4,39z"/>
	<path id="s_00000046327834465972386850000005585469709813787829_" class="st1" d="M360,66.2l9.4,29l-24.7-17.9h30.5l-24.7,17.9
		L360,66.2z"/>
	<path id="s_00000024687666445486419240000011205926079578030239_" class="st1" d="M360,122.3l9.4,29l-24.7-17.9h30.5l-24.7,17.9
		L360,122.3z"/>
	<path id="s_00000016793936574858966220000018166425430835813291_" class="st1" d="M360,178.3l9.4,29l-24.7-17.9h30.5l-24.7,17.9
		L360,178.3z"/>
	<path id="s_00000059289623719840734270000012431011094974651582_" class="st1" d="M360,234.4l9.4,29l-24.7-17.9h30.5l-24.7,17.9
		L360,234.4z"/>
</g>
<radialGradient id="SVGID_1_" cx="255.12" cy="111.36" r="255.12" gradientTransform="matrix(1 0 0 1 0 143.76)" gradientUnits="userSpaceOnUse">
	<stop  offset="0" style="stop-color:#FFFFFF;stop-opacity:0"/>
	<stop  offset="0.32" style="stop-color:#F3F3F3;stop-opacity:3.000000e-02"/>
	<stop  offset="0.61" style="stop-color:#CFCFCF;stop-opacity:0.13"/>
	<stop  offset="0.87" style="stop-color:#929292;stop-opacity:0.3"/>
	<stop  offset="1" style="stop-color:#6C6C6C;stop-opacity:0.4"/>
</radialGradient>
<circle class="st3" cx="255.1" cy="255.1" r="255.1"/>
</svg>
