<svg id="Слой_1" data-name="Слой 1" xmlns="http://www.w3.org/2000/svg" xmlns:xlink="http://www.w3.org/1999/xlink" viewBox="0 0 510.24 510.24"><defs><style>.cls-1{fill:#fff;}.cls-1,.cls-2,.cls-3{fill-rule:evenodd;}.cls-2{fill:#1e4295;}.cls-3{fill:#d52e1e;}.cls-4{fill:url(#Безымянный_градиент_48);}</style><radialGradient id="Безымянный_градиент_48" cx="255.12" cy="256.64" r="255.12" gradientTransform="matrix(1, 0, 0, -1, 0, 511.76)" gradientUnits="userSpaceOnUse"><stop offset="0" stop-color="#fff" stop-opacity="0"/><stop offset="0.32" stop-color="#f3f3f3" stop-opacity="0.03"/><stop offset="0.61" stop-color="#cfcfcf" stop-opacity="0.13"/><stop offset="0.87" stop-color="#929292" stop-opacity="0.3"/><stop offset="1" stop-color="#6c6c6c" stop-opacity="0.4"/></radialGradient></defs><path class="cls-1" d="M510.24,255.12a254.67,254.67,0,0,1-14.61,85.3C460.54,439.37,366.1,510.24,255.12,510.24S49.7,439.37,14.61,340.42a256.32,256.32,0,0,1,0-170.6C49.7,70.87,144.14,0,255.12,0S460.54,70.87,495.63,169.82A254.67,254.67,0,0,1,510.24,255.12Z"/><path class="cls-2" d="M510.24,255.12a254.67,254.67,0,0,1-14.61,85.3C460.54,439.37,366.1,510.24,255.12,510.24S49.7,439.37,14.61,340.42a256.32,256.32,0,0,1,0-170.6h481A254.67,254.67,0,0,1,510.24,255.12Z"/><path class="cls-3" d="M495.63,340.42C460.54,439.37,366.1,510.24,255.12,510.24S49.7,439.37,14.61,340.42Z"/><circle class="cls-4" cx="255.12" cy="255.12" r="255.12"/></svg>