<?xml version="1.0" encoding="utf-8"?>
<!-- Generator: Adobe Illustrator 28.0.0, SVG Export Plug-In . SVG Version: 6.00 Build 0)  -->
<svg version="1.1" id="Слой_1" xmlns="http://www.w3.org/2000/svg" xmlns:xlink="http://www.w3.org/1999/xlink" x="0px" y="0px"
	 viewBox="0 0 510.2 510.2" style="enable-background:new 0 0 510.2 510.2;" xml:space="preserve">
<style type="text/css">
	.st0{fill:url(#SVGID_1_);}
	.st1{fill:#FF0000;}
</style>
<radialGradient id="SVGID_1_" cx="255.12" cy="111.36" r="255.12" gradientTransform="matrix(1 0 0 1 0 143.76)" gradientUnits="userSpaceOnUse">
	<stop  offset="0" style="stop-color:#FFFFFF;stop-opacity:0"/>
	<stop  offset="0.32" style="stop-color:#F3F3F3;stop-opacity:3.000000e-02"/>
	<stop  offset="0.61" style="stop-color:#CFCFCF;stop-opacity:0.13"/>
	<stop  offset="0.87" style="stop-color:#929292;stop-opacity:0.3"/>
	<stop  offset="1" style="stop-color:#6C6C6C;stop-opacity:0.4"/>
</radialGradient>
<circle class="st0" cx="255.1" cy="255.1" r="255.1"/>
<g>
	<path class="st1" d="M510.2,255.1c0,12.8-0.9,25.3-2.8,37.6H292.7v214.8c-12.3,1.8-24.8,2.8-37.6,2.8c-12.8,0-25.3-0.9-37.6-2.8
		V292.7H2.8C0.9,280.5,0,267.9,0,255.1c0-12.8,0.9-25.3,2.8-37.6h214.8V2.8C229.8,0.9,242.3,0,255.1,0c12.8,0,25.3,0.9,37.6,2.8
		v214.8h214.8C509.3,229.8,510.2,242.3,510.2,255.1z"/>
	<g id="c_00000103987315523815958620000003234415538822674605_">
		<g id="b_00000127039105066758656620000008944333489581570211_">
			<path id="a_00000064340014938219984470000017753744635371581371_" class="st1" d="M82.1,103.9c8.8,1.2,17.7,1.2,26.4,0
				c-5.1,25.4-5.1,51.5,0,76.9c-8.8-1.2-17.7-1.2-26.4,0C87.2,155.4,87.2,129.2,82.1,103.9L82.1,103.9z"/>
			<g transform="rotate(90,6.5,4)">
				<path id="a_00000072237944833477901830000009291065250631700901_" class="st1" d="M133.8,129.1c-1.2,8.8-1.2,17.7,0,26.4
					c-25.4-5.1-51.5-5.1-76.9,0c1.2-8.8,1.2-17.7,0-26.4C82.2,134.2,108.4,134.2,133.8,129.1L133.8,129.1z"/>
			</g>
		</g>
		<g>
			<g id="b_00000090281084693589019280000006119687161087719811_">
				<path id="a_00000069382824884619809050000000790101288049532313_" class="st1" d="M401.7,103.9c8.8,1.2,17.7,1.2,26.4,0
					c-5.1,25.4-5.1,51.5,0,76.9c-8.8-1.2-17.7-1.2-26.4,0C406.8,155.4,406.8,129.2,401.7,103.9L401.7,103.9z"/>
				<g transform="rotate(90,6.5,4)">
					<path id="a_00000120530773337411477960000016171195934817843343_" class="st1" d="M453.4,129.1c-1.2,8.8-1.2,17.7,0,26.4
						c-25.4-5.1-51.5-5.1-76.9,0c1.2-8.8,1.2-17.7,0-26.4C401.8,134.2,428,134.2,453.4,129.1L453.4,129.1z"/>
				</g>
			</g>
		</g>
	</g>
	<g>
		<g id="c_00000116234791526833915250000004147047858810582912_">
			<g id="b_00000180356234064474142890000003493822554462922904_">
				<path id="a_00000090264757357807304020000005593846811054142643_" class="st1" d="M82.1,329.5c8.8,1.2,17.7,1.2,26.4,0
					c-5.1,25.4-5.1,51.5,0,76.9c-8.8-1.2-17.7-1.2-26.4,0C87.2,381,87.2,354.8,82.1,329.5L82.1,329.5z"/>
				<g transform="rotate(90,6.5,4)">
					<path id="a_00000047760618482552118310000000681765769603265969_" class="st1" d="M133.8,354.7c-1.2,8.8-1.2,17.7,0,26.4
						c-25.4-5.1-51.5-5.1-76.9,0c1.2-8.8,1.2-17.7,0-26.4C82.2,359.8,108.4,359.8,133.8,354.7L133.8,354.7z"/>
				</g>
			</g>
			<g>
				<g id="b_00000182502335084032630660000002591246898496817320_">
					<path id="a_00000003095503941426206510000011472252400872500101_" class="st1" d="M401.7,329.5c8.8,1.2,17.7,1.2,26.4,0
						c-5.1,25.4-5.1,51.5,0,76.9c-8.8-1.2-17.7-1.2-26.4,0C406.8,381,406.8,354.8,401.7,329.5L401.7,329.5z"/>
					<g transform="rotate(90,6.5,4)">
						<path id="a_00000036954259653560095770000006766741523898972078_" class="st1" d="M453.4,354.7c-1.2,8.8-1.2,17.7,0,26.4
							c-25.4-5.1-51.5-5.1-76.9,0c1.2-8.8,1.2-17.7,0-26.4C401.8,359.8,428,359.8,453.4,354.7L453.4,354.7z"/>
					</g>
				</g>
			</g>
		</g>
	</g>
</g>
</svg>
