<?xml version="1.0" encoding="utf-8"?>
<!-- Generator: Adobe Illustrator 28.0.0, SVG Export Plug-In . SVG Version: 6.00 Build 0)  -->
<svg version="1.1" id="Слой_1" xmlns="http://www.w3.org/2000/svg" xmlns:xlink="http://www.w3.org/1999/xlink" x="0px" y="0px"
	 viewBox="0 0 50 50" style="enable-background:new 0 0 50 50;" xml:space="preserve">
<style type="text/css">
	.st0{fill:#FFFFFF;}
	.st1{fill:#003F4D;}
</style>
<circle class="st0" cx="25" cy="25" r="9.7"/>
<path class="st1" d="M47.5,16.6c0.3,0.8,0,1.7-0.6,2.3l-4.1,3.7c0.1,0.8,0.2,1.6,0.2,2.4c0,0.8-0.1,1.6-0.2,2.4l4.1,3.7
	c0.6,0.6,0.9,1.5,0.6,2.3c-0.4,1.1-0.9,2.2-1.5,3.2l-0.4,0.8c-0.6,1-1.3,2-2.1,2.9c-0.6,0.7-1.5,0.9-2.3,0.6L36,39.2
	c-1.3,1-2.6,1.8-4.1,2.4L30.7,47c-0.2,0.9-0.8,1.5-1.7,1.7c-1.3,0.2-2.6,0.3-4,0.3c-1.4,0-2.7-0.1-4-0.3c-0.9-0.1-1.5-0.8-1.7-1.7
	l-1.2-5.3c-1.5-0.6-2.9-1.4-4.1-2.4l-5.2,1.7c-0.8,0.3-1.7,0-2.3-0.6c-0.8-0.9-1.5-1.9-2.1-2.9L4,36.6c-0.6-1-1.1-2.1-1.5-3.2
	c-0.3-0.8,0-1.7,0.6-2.3l4.1-3.7C7.1,26.6,7,25.8,7,25s0.1-1.6,0.2-2.4l-4.1-3.7c-0.6-0.6-0.9-1.5-0.6-2.3c0.4-1.1,0.9-2.2,1.5-3.2
	l0.4-0.8c0.6-1,1.3-2,2.1-2.9C7.1,9.1,8,8.8,8.8,9.1l5.2,1.7c1.3-1,2.6-1.8,4.1-2.4L19.3,3c0.2-0.9,0.8-1.5,1.7-1.7
	C22.3,1.1,23.6,1,25,1s2.7,0.1,4,0.3c0.9,0.1,1.5,0.8,1.7,1.7l1.2,5.3c1.5,0.6,2.9,1.4,4.1,2.4l5.2-1.7c0.8-0.3,1.7,0,2.3,0.6
	c0.8,0.9,1.5,1.9,2.1,2.9l0.4,0.8C46.6,14.4,47.1,15.5,47.5,16.6L47.5,16.6z M25,32.5c4.1,0,7.5-3.4,7.5-7.5s-3.4-7.5-7.5-7.5
	s-7.5,3.4-7.5,7.5S20.9,32.5,25,32.5z"/>
</svg>
