<?xml version="1.0" encoding="utf-8"?>
<!-- Generator: Adobe Illustrator 28.0.0, SVG Export Plug-In . SVG Version: 6.00 Build 0)  -->
<svg version="1.1" id="Слой_1" xmlns="http://www.w3.org/2000/svg" xmlns:xlink="http://www.w3.org/1999/xlink" x="0px" y="0px"
	 viewBox="0 0 50 50" style="enable-background:new 0 0 50 50;" xml:space="preserve">
<style type="text/css">
	.st0{fill:#003F4D;}
</style>
<g>
	<path class="st0" d="M48.9,23.4L48.9,23.4L48.9,23.4c-0.9-0.5-3-1.7-3.2-2.5s1.3-2.7,1.9-3.4l0,0v-0.1c-0.3-1-0.8-2-1.2-3v-0.1
		h-0.1c-0.9-0.1-3.4-0.4-3.8-1c-0.4-0.6,0.2-3,0.5-3.9V9.3l0,0c-0.7-0.8-1.5-1.6-2.3-2.3l0,0h-0.1c-0.9,0.3-3.2,0.9-3.9,0.5
		c-0.6-0.4-1-2.9-1-3.8V3.6h-0.1c-1-0.5-2-0.9-3-1.2h-0.1l0,0c-0.7,0.6-2.6,2.1-3.4,1.9c-0.8-0.1-2-2.3-2.4-3.1V1.1h-0.1
		C26.1,1.1,25.5,1,25,1s-1.1,0-1.6,0.1h-0.1v0.1c-0.4,0.8-1.6,2.9-2.4,3.1c-0.8,0.1-2.7-1.3-3.4-1.9l0,0h-0.1c-1,0.3-2,0.8-3,1.2
		h-0.1v0.1c-0.1,0.9-0.4,3.4-1,3.8c-0.6,0.4-3-0.2-3.9-0.5H9.3l0,0C8.4,7.6,7.7,8.4,6.9,9.2l0,0v0.1c0.3,0.9,0.9,3.2,0.5,3.9
		c-0.4,0.6-2.9,1-3.8,1H3.5v0.1c-0.5,1-0.9,2-1.2,3v0.1l0,0c0.6,0.7,2.1,2.6,1.9,3.4c-0.1,0.8-2.3,2-3.1,2.4H1v0.1
		c0.1,0.6,0,1.2,0,1.7s0,1.1,0.1,1.6v0.1h0.1c0.8,0.4,2.9,1.6,3.1,2.4S3,31.8,2.4,32.5l0,0v0.1c0.3,1,0.8,2,1.2,3v0.1h0.1
		c0.9,0.1,3.4,0.4,3.8,1c0.4,0.6-0.2,3-0.5,3.9v0.1l0,0c0.7,0.8,1.5,1.6,2.3,2.3l0,0h0.1c0.9-0.3,3.2-0.9,3.9-0.5
		c0.6,0.4,1,2.9,1,3.8v0.1h0.1c1,0.5,2,0.9,3,1.2h0.1l0,0c0.7-0.6,2.6-2.1,3.4-1.9c0.8,0.2,2,2.3,2.4,3.1v0.1h0.1
		c0.6,0,1.1,0.1,1.6,0.1s1.1,0,1.6-0.1h0.1v-0.1c0.4-0.8,1.6-2.9,2.4-3.1c0.8-0.1,2.7,1.4,3.4,1.9l0,0h0.1c1-0.3,2-0.8,3-1.2h0.1
		v-0.1c0.1-0.9,0.4-3.4,1-3.8c0.6-0.4,3,0.2,3.9,0.5h0.1l0,0c0.8-0.7,1.6-1.5,2.3-2.3l0,0v-0.1c-0.3-0.9-0.9-3.2-0.5-3.9
		c0.4-0.6,2.9-1,3.8-1h0.1v-0.1c0.5-1,0.9-2,1.2-3v-0.1l0,0c-0.6-0.7-2.1-2.6-1.9-3.4c0.1-0.8,2.3-2,3.1-2.4h0.1v-0.1
		c0-0.6,0.1-1.1,0.1-1.6C49,24.5,48.9,23.9,48.9,23.4z M44,25c0,10.5-8.5,19-19,19S6,35.5,6,25S14.5,6,25,6S44,14.5,44,25z"/>
</g>
</svg>
