<?xml version="1.0" encoding="utf-8"?>
<!-- Generator: Adobe Illustrator 28.0.0, SVG Export Plug-In . SVG Version: 6.00 Build 0)  -->
<svg version="1.1" id="_Слой_1" xmlns="http://www.w3.org/2000/svg" xmlns:xlink="http://www.w3.org/1999/xlink" x="0px"
	 y="0px" viewBox="0 0 50 50" style="enable-background:new 0 0 50 50;" xml:space="preserve">
<style type="text/css">
	.st0{fill:#003F4D;}
</style>
<path class="st0" d="M33.5,25c0,2-0.1,3.9-0.3,5.7H16.8c-0.2-1.8-0.3-3.7-0.3-5.7s0.1-3.9,0.3-5.7h16.4C33.4,21.1,33.5,23,33.5,25z
	 M36,19.3h10.9c0.5,1.8,0.7,3.7,0.7,5.7s-0.2,3.8-0.7,5.7H36c0.2-1.8,0.3-3.7,0.3-5.7S36.2,21.2,36,19.3z M46,16.5H35.7
	C34.8,10.9,33,6.1,30.8,3.1C37.7,4.9,43.3,10,46,16.5L46,16.5z M32.8,16.5H17.2c0.5-3.2,1.4-6.1,2.4-8.4c0.9-2.1,2-3.6,3-4.6
	c1-0.9,1.8-1.2,2.5-1.2s1.5,0.3,2.5,1.2c1,1,2,2.5,3,4.6C31.4,10.4,32.3,13.3,32.8,16.5z M14.3,16.5H4C6.7,10,12.3,4.9,19.2,3.1
	C17,6.1,15.2,10.9,14.3,16.5L14.3,16.5z M3.1,19.3H14c-0.2,1.8-0.3,3.7-0.3,5.7s0.1,3.8,0.3,5.7H3.1C2.6,28.8,2.4,27,2.4,25
	S2.6,21.2,3.1,19.3z M19.6,41.9c-1-2.3-1.8-5.1-2.4-8.4h15.6c-0.5,3.2-1.4,6.1-2.4,8.4c-0.9,2.1-2,3.6-3,4.6c-1,0.9-1.8,1.2-2.5,1.2
	s-1.5-0.3-2.5-1.2C21.5,45.5,20.5,44,19.6,41.9L19.6,41.9z M14.3,33.5c0.9,5.7,2.6,10.4,4.9,13.4C12.3,45.1,6.7,40,4,33.5H14.3z
	 M46,33.5c-2.7,6.6-8.3,11.6-15.2,13.4c2.3-3,4-7.8,4.9-13.4H46L46,33.5z"/>
</svg>
