<?xml version="1.0" encoding="UTF-8"?>
<svg id="_Слой_1" data-name=" Слой 1" xmlns="http://www.w3.org/2000/svg" viewBox="0 0 200 200">
  <defs>
    <style>
      .cls-1 {
        fill: none;
      }

      .cls-2 {
        fill: #013f4e;
      }
    </style>
  </defs>
  <path class="cls-2" d="m197,118.64c-23.77-.95-45.74,1.47-61.02,3.98-23.4,3.84-40.58,9.59-46.21,11.55-5.46,1.9-22.54,8.03-43.33,19.5-9.29,5.12-27.97,17.18-35.6,22.38-1.4,1.05-1.95,2.73-1.95,4.62v1c0,.72-.59,1.31-1.32,1.31h-3.15c-.72,0-1.31-.59-1.31-1.31V18.14c0-.72.59-1.32,1.31-1.32h3.15c.73,0,1.32.6,1.32,1.32v30.63l7.38-28.92c.36-1.53.84-2.3,1.46-2.3.47,0,.96.41,1.44,1.21.49.81.9,1.81,1.24,3.03.33,1.2.5,2.49.5,3.87,0,.4-.03.88-.09,1.45-.05.56-.15,1.09-.29,1.57l-7.44,27.1,9.11,40.17c.2.89.3,1.81.3,2.78,0,1.29-.17,2.54-.48,3.75-.32,1.21-.73,2.2-1.24,2.96-.5.77-1.02,1.15-1.54,1.15-.39,0-.75-.24-1.07-.72-.32-.49-.61-1.25-.86-2.3l-7.86-34.48-.56,2.05v46.06c0-4.39,3.55-7.94,7.94-7.94h8.56c-1.69.6-3.1,1.12-3.92,1.42-.3.05-4.01,1.48-6.82,3.22-1.05.6-2.49,1.42-3.81,2.92-.88,1.03-1.51,2.01-1.95,3.1-.43,1.04-.68,2.14-.75,3.27-.05.72.25,1.38.75,1.82,1.35,1.21,3.58.31,3.69-1.53.1-1.46.6-2.57,1.62-3.74.97-1.1,2.05-1.61,3.18-2.27,2.99-1.77,5.46-2.55,5.48-2.56l.07-.02c2.95-1.12,12.01-4.32,16.12-5.63h23.04c-6.15,1.75-11.49,3.48-16.26,5.27-12.52,4.67-27.26,12.84-34.29,18.23-2.23,2.13-2.97,3.9-3.39,6.09-.12.78.18,1.54.74,2.03,1.27,1.14,3.39.4,3.65-1.32.27-1.27.58-2.13,1.99-3.51,18.85-12.6,31.47-18.59,65.21-26.79h28.88c-29.41,5.33-59.68,15.9-84.53,30.49-5.97,3.12-11.4,6.72-13.23,8.78-1.96,2.32-2.51,4.06-2.72,6.39-.08,1.23.86,2.28,2.07,2.36,1.22.08,2.29-.85,2.37-2.08.13-1.4.42-2.29,1.61-3.72,1.06-1.2,5.49-4.42,12-7.81l.09-.05c32.46-18.91,71.64-30.63,113.51-33.97h0c5.36.32,9.63.76,12.43,1.05,3.35.35,6.79.79,10.22,1.29-49,1.91-98.28,16.36-139.6,42.56-5.71,3.57-10.86,7.6-12.53,9.81-.86,1.18-1.27,2.05-1.58,2.85-.45,1.21-.66,2.47-.63,3.75.02,1.23,1.05,2.21,2.27,2.18,1.23-.03,2.2-1.04,2.18-2.27-.02-.71.1-1.45.35-2.12.02-.04.35-.9.96-1.7.97-1.29,5.14-4.85,11.34-8.73h.01c46.84-29.83,105.23-44.67,162.52-41.77h0c4.19.89,7.45,1.64,9.25,2.09h0Z"/>
  <path class="cls-2" d="m31.45,24.46v33.1c0,.63.51,1.14,1.14,1.14h8.38c.63,0,1.14.51,1.14,1.14v3.49c0,.63-.51,1.14-1.14,1.14h-8.38c-.63,0-1.14.51-1.14,1.14v33.1c0,.63.51,1.14,1.14,1.14h11.26c.63,0,1.14.51,1.14,1.14v3.49c0,.63-.51,1.14-1.14,1.14h-15.46c-.58,0-1.13-.43-1.63-1.27-.5-.85-.75-2.12-.75-3.81V22.63c0-1.69.25-2.96.75-3.81.51-.85,1.05-1.27,1.63-1.27h15.46c.63,0,1.14.51,1.14,1.14v3.49c0,.63-.51,1.14-1.14,1.14h-11.26c-.63,0-1.14.51-1.14,1.14Z"/>
  <path class="cls-2" d="m54.55,24.46v33.1c0,.63.51,1.14,1.14,1.14h8.38c.63,0,1.14.51,1.14,1.14v3.49c0,.63-.51,1.14-1.14,1.14h-8.38c-.63,0-1.14.51-1.14,1.14v33.1c0,.63.51,1.14,1.14,1.14h11.26c.63,0,1.14.51,1.14,1.14v3.49c0,.63-.51,1.14-1.14,1.14h-15.46c-.58,0-1.13-.43-1.63-1.27-.5-.85-.75-2.12-.75-3.81V22.63c0-1.69.25-2.96.75-3.81.51-.85,1.05-1.27,1.63-1.27h15.46c.63,0,1.14.51,1.14,1.14v3.49c0,.63-.51,1.14-1.14,1.14h-11.26c-.63,0-1.14.51-1.14,1.14Z"/>
  <path class="cls-2" d="m90.14,101.35v3.5c0,.64-.51,1.14-1.14,1.14h-14.02c-.59,0-1.13-.43-1.63-1.27-.5-.85-.75-2.12-.75-3.81V18.61c0-.59.48-1.08,1.08-1.08h3.29c.6,0,1.08.48,1.08,1.08v80.45c0,.64.51,1.14,1.14,1.14h9.82c.63,0,1.14.51,1.14,1.14h-.01Z"/>
  <path class="cls-2" d="m100.37,106.71c-.78,0-1.52-.45-2.22-1.33-.7-.89-1.14-2.22-1.34-3.99l-8.28-76.1c-.06-.48-.08-.97-.08-1.45,0-1.21.18-2.28.54-3.21.36-.93.82-1.67,1.36-2.24.54-.56,1.07-.85,1.57-.85.42,0,.8.24,1.15.73.35.48.56,1.29.65,2.42l6.61,65.57,3.56-42.1c.14-1.45.47-2.54.98-3.27.52-.72,1.08-1.09,1.69-1.09s1.18.36,1.69,1.09c.52.73.83,1.82.94,3.27l3.55,42.1,6.61-65.57c.11-1.13.33-1.94.67-2.42.33-.48.71-.73,1.13-.73.53,0,1.06.28,1.59.85s.98,1.31,1.34,2.24c.36.93.54,2,.54,3.21,0,.48-.03.97-.08,1.45l-8.28,76.1c-.22,1.78-.67,3.11-1.34,3.99s-1.41,1.33-2.22,1.33-1.52-.45-2.22-1.33-1.11-2.22-1.25-3.99l-2.68-32.67-2.72,32.67c-.14,1.78-.56,3.11-1.25,3.99s-1.44,1.33-2.22,1.33h0Z"/>
  <path class="cls-2" d="m148.04,98.24l-8.07-76.1c-.2-1.77-.63-3.11-1.3-3.99-.66-.89-1.41-1.33-2.22-1.33s-1.51.44-2.2,1.33c-.68.89-1.12,2.22-1.31,3.99l-8.07,76.1c-.03.56-.04.97-.04,1.21,0,1.29.18,2.42.55,3.39.36.97.8,1.73,1.34,2.3.53.56,1.05.84,1.55.84.45,0,.84-.22,1.17-.66.34-.44.56-1.27.67-2.48l1.55-16.09.25-2.65c.05-.48.45-.84.93-.84h7.26c.48,0,.88.37.93.84l.25,2.65,1.59,16.09c.12,1.21.33,2.04.65,2.48.32.45.71.66,1.15.66.51,0,1.02-.28,1.55-.84s.98-1.35,1.36-2.36c.38-1,.56-2.12.56-3.32,0-.25-.03-.65-.09-1.21h0Zm-14.58-20.77c-.5,0-.89-.43-.84-.93l.2-2.14,3.64-37.15,3.84,39.29c.05.5-.34.93-.84.93h-6Z"/>
  <path class="cls-2" d="m168.87,106.59c-.36,0-.72-.32-1.07-.97s-.62-1.57-.82-2.78l-5.94-33.39h-3.51v31.46c0,1.69-.28,2.96-.84,3.81s-1.19,1.27-1.88,1.27-1.29-.42-1.86-1.27-.86-2.12-.86-3.81V22.51c0-1.37.16-2.54.48-3.51.32-.97.75-1.45,1.28-1.45h8.28c1.84,0,3.51.77,5,2.3,1.49,1.53,2.68,4.13,3.58,7.8.89,3.67,1.34,8.73,1.34,15.18,0,4.68-.24,8.65-.71,11.92-.47,3.27-1.12,5.89-1.94,7.86-.82,1.98-1.76,3.45-2.82,4.41l5.52,29.4c.06.32.1.67.13,1.03s.04.67.04.91c0,1.29-.17,2.58-.5,3.87s-.76,2.34-1.28,3.15-1.05,1.21-1.61,1.21h0Zm-11.33-42.26h4.6c1.37,0,2.45-.97,3.26-2.9.81-1.94,1.21-12.46,1.21-17.14s-.4-16.15-1.21-18.05c-.81-1.89-1.9-2.84-3.26-2.84h-4.6v40.93Z"/>
  <path class="cls-2" d="m195.33,29.1c-.88-4.07-2.07-7.01-3.56-8.83-1.49-1.81-3.16-2.72-5-2.72h-7.4c-.72,0-1.3.48-1.73,1.46-.43.96-.65,2.13-.65,3.5v78.35c0,1.37.22,2.54.65,3.5.43.97,1.01,1.46,1.73,1.46h7.4c1.84,0,3.51-.91,5-2.72,1.49-1.82,2.68-4.77,3.56-8.83.87-4.08,1.31-9.5,1.31-16.28v-32.61c0-6.77-.44-12.2-1.31-16.28Zm-4.12,48.89c0,4.76-.39,16.23-1.17,18.53-.78,2.3-1.86,3.44-3.22,3.44h-3.53c-.48,0-.86-.38-.86-.86V24.26c0-.48.38-.86.86-.86h3.53c1.36,0,2.44,1.14,3.22,3.44.78,2.3,1.17,13.77,1.17,18.53v32.61h0Z"/>
  <line class="cls-1" x1="140.39" y1="77.48" x2="140.1" y2="74.41"/>
</svg>