<?xml version="1.0" encoding="UTF-8"?>
<svg id="_Слой_1" data-name=" Слой 1" xmlns="http://www.w3.org/2000/svg" width="726.97" height="726.97" viewBox="0 0 726.97 726.97">
  <defs>
    <style>
      .cls-1 {
        fill: #003f4d;
      }

      .cls-1, .cls-2 {
        stroke-width: 0px;
      }

      .cls-2 {
        fill: #fff;
      }
    </style>
  </defs>
  <circle class="cls-2" cx="363.48" cy="363.48" r="340.74"/>
  <path class="cls-1" d="m363.48,221.68c37.91,0,73.55,14.76,100.36,41.57,26.81,26.81,41.57,62.45,41.57,100.36s-14.76,73.55-41.57,100.36c-26.81,26.81-62.45,41.57-100.36,41.57s-73.55-14.76-100.36-41.57c-26.81-26.81-41.57-62.45-41.57-100.36s14.76-73.55,41.57-100.36c26.81-26.81,62.45-41.57,100.36-41.57m0-26c-92.74,0-167.93,75.18-167.93,167.93s75.18,167.93,167.93,167.93,167.93-75.18,167.93-167.93-75.18-167.93-167.93-167.93h0Z"/>
  <path class="cls-1" d="m569.58,500.85c-8.97,13.41-19.27,25.95-30.83,37.51-15.62,15.62-33,28.93-51.91,39.77l-128.04-131.43v164.03c-30.83-.61-60.75-5.46-85.42-17.13V134.84c24.67-11.67,54.59-18.01,85.42-18.61v168.1l126.2-136.53c19.62,11.02,37.63,24.69,53.75,40.8,10.13,10.14,19.3,21.02,27.45,32.58l-130.58,142.13,133.97,137.54Z"/>
  <path class="cls-1" d="m573,504.37c-45.33,67.34-122.25,111.63-209.52,111.63-139.39,0-252.39-113-252.39-252.39s113-252.38,252.39-252.38c85.01,0,160.2,42.03,205.93,106.44l24.92-27.14c-52.64-70.09-136.45-115.43-230.85-115.43-159.34,0-288.51,129.17-288.51,288.51s129.17,288.51,288.51,288.51c97.05,0,182.91-47.92,235.2-121.38l-25.68-26.37Z"/>
  <rect class="cls-2" x="273.38" y="362.14" width="85.16" height="5.32"/>
  <rect class="cls-2" x="312.3" y="254.88" width="293.45" height="6" transform="translate(-43.25 415.76) rotate(-46.78)"/>
  <polygon class="cls-2" points="560.07 575.85 530.93 545.96 356.39 366.89 360.69 362.7 538.65 545.28 564.37 571.66 560.07 575.85"/>
  <path class="cls-1" d="m359.98,65.31c-2.42.02-4.84.07-7.27.14-28.14.91-55.24,5.69-80.79,13.84,5.57-9.89,10.11-20.41,13.48-31.36l53.63-7.85c6.13,9.16,13.15,17.6,20.94,25.23Z"/>
  <path class="cls-1" d="m492.21,93.86c-26.93-12.65-56.04-21.35-86.58-25.4,9.45-6.67,18.2-14.38,26.06-23.03l51.88,15.66c1.71,11.26,4.63,22.24,8.64,32.77Z"/>
  <path class="cls-1" d="m600.9,141.7c-3.12,10.89-5.05,22.03-5.79,33.22-19.12-22.95-41.63-42.96-66.77-59.27,10.9-2.14,21.6-5.41,31.92-9.82l40.64,35.87Z"/>
  <path class="cls-1" d="m548.01,377.46c-5.28,2.53-10.26,5.61-14.84,9.17,2.31-15.28,2.32-30.86,0-46.19,4.57,3.48,9.51,6.5,14.76,8.98l.08,28.04Z"/>
  <path class="cls-1" d="m543.11,318.74c-4.21,4.08-7.95,8.57-11.18,13.39-2.64-15.23-7.56-30.01-14.62-43.81,5.44,1.86,11.08,3.15,16.84,3.84l8.95,26.57Z"/>
  <path class="cls-1" d="m543.5,408.67c-4.25-4.04-8.03-8.5-11.3-13.29-2.5,15.25-7.28,30.08-14.21,43.95,5.42-1.91,11.05-3.26,16.81-4l8.7-26.66Z"/>
  <path class="cls-1" d="m605.63,580.19l-39.43,37.19c-10.52-4.08-21.39-7.02-32.43-8.79,24.62-16.95,46.55-37.53,65.03-60.95,1.13,11.01,3.4,21.92,6.83,32.55Z"/>
  <path class="cls-1" d="m496.29,631.45c-4.08,10.57-7.04,21.61-8.8,32.92l-51.94,15.5c-7.48-8.28-15.78-15.72-24.72-22.21,30.14-4.42,58.88-13.38,85.46-26.21Z"/>
  <path class="cls-1" d="m359.44,662.25c-7.9,7.58-15.05,16-21.29,25.14l-53.55-8.36c-3.28-11.05-7.75-21.64-13.27-31.62,24.48,8.05,50.43,13.04,77.4,14.47,3.58.19,7.15.32,10.71.37Z"/>
  <path class="cls-1" d="m220.99,625.37c-10.48,3.18-20.66,7.44-30.37,12.76l-43.94-31.73c2.08-11.34,2.9-22.8,2.51-34.19,18.17,18.28,39.04,34.49,62.43,47.99,3.11,1.79,6.23,3.53,9.38,5.18Z"/>
  <path class="cls-1" d="m117.74,532.48c-10.64-1.77-21.49-2.47-32.37-2.04l-25.18-48c7-9.34,12.91-19.36,17.67-29.89,9.13,28.28,22.49,55.28,39.88,79.93Z"/>
  <path class="cls-1" d="m68.51,403.58c-8.79-6.87-18.33-12.83-28.47-17.75l.42-54.21c9.91-4.62,19.26-10.24,27.95-16.7-4.52,30.05-4.32,59.87.1,88.66Z"/>
  <path class="cls-1" d="m122.92,187.48c-17.67,23.45-32.1,49.87-42.4,78.8-4.57-10.26-10.25-20.05-16.96-29.19l25.7-47.72c11.31.56,22.59-.08,33.65-1.9Z"/>
  <path class="cls-1" d="m226.53,97.95c-26.17,13.61-50.33,31.1-71.54,52,.15-10.82-.8-21.67-2.86-32.41l43.65-32.13c9.83,5.27,20.15,9.48,30.76,12.54Z"/>
  <circle class="cls-1" cx="239.01" cy="229.11" r="11.03"/>
  <path class="cls-1" d="m138.84,363.61c0,87.44,49.96,163.21,122.89,200.33v-29.8c-13.89-8.33-26.86-18.42-38.61-30.17-37.49-37.49-58.14-87.34-58.14-140.36s20.65-102.87,58.14-140.36c11.75-11.75,24.72-21.84,38.61-30.17v-29.8c-72.93,37.11-122.89,112.89-122.89,200.33Z"/>
  <circle class="cls-1" cx="239.01" cy="497.47" r="11.03"/>
  <path class="cls-2" d="m363.48,111.22c-139.39,0-252.39,113-252.39,252.39s113,252.39,252.39,252.39,252.39-113,252.39-252.39-113-252.39-252.39-252.39Zm3.06,8.02c31.92.39,62.87,6.83,92.07,19.18,5.71,2.42,11.31,5.04,16.79,7.86l-108.86,117.77V119.24Zm-101.17,468.23l-3.64-1.59c-3.69-1.69-7.32-3.47-10.91-5.33l-8-4.35c-19.02-10.8-36.48-24.11-52.15-39.78-22.44-22.45-40.07-48.58-52.37-77.69-12.75-30.12-19.21-62.12-19.21-95.12s6.46-65,19.21-95.13c12.3-29.1,29.93-55.23,52.37-77.68,15.67-15.67,33.13-28.98,52.15-39.78l8-4.35c3.59-1.86,7.22-3.64,10.91-5.33l3.64-1.59v447.72Zm193.24,1.33c-29.11,12.31-59.96,18.75-91.77,19.17v-141.38l110.45,113.37c-6.08,3.2-12.31,6.15-18.68,8.84Zm77.68-52.38c-15.55,15.55-32.87,28.79-51.72,39.54l-125.29-128.59h-.44v160.58c-29.53-.54-58.25-6.28-85.47-17.1V136.38c27.13-10.79,55.74-16.54,85.17-17.1v165.21l124.14-134.29c19.58,10.93,37.55,24.53,53.61,40.6,10.27,10.27,19.51,21.29,27.7,33.03l-128.27,139.63,131.58,135.09c-8.99,13.55-19.35,26.21-31.01,37.87Zm35.43-44.8l-124.99-128.32,121.87-132.65c7.76,11.95,14.47,24.58,20.07,37.83,12.74,30.13,19.2,62.13,19.2,95.13s-6.46,65-19.2,95.12c-4.83,11.44-10.5,22.42-16.95,32.89Z"/>
  <circle class="cls-1" cx="181.46" cy="364.8" r="11.03"/>
  <circle class="cls-1" cx="196.17" cy="288.33" r="11.03"/>
  <circle class="cls-1" cx="196.17" cy="438.26" r="11.03"/>
</svg>