<?xml version="1.0" encoding="utf-8"?>
<!-- Generator: Adobe Illustrator 28.0.0, SVG Export Plug-In . SVG Version: 6.00 Build 0)  -->
<svg version="1.1" id="_Слой_1" xmlns="http://www.w3.org/2000/svg" xmlns:xlink="http://www.w3.org/1999/xlink" x="0px"
	 y="0px" viewBox="0 0 50 50" style="enable-background:new 0 0 50 50;" xml:space="preserve">
<style type="text/css">
	.st0{fill:#003F4D;}
</style>
<path class="st0" d="M3.8,20.2h42.4c1.5,0,2.8-1.2,2.8-2.8c0-0.5-0.2-1.1-0.5-1.5l-5.7-8.5c-0.7-1-1.8-1.6-3-1.6H10.2
	c-1.2,0-2.3,0.6-3,1.6l-5.7,8.5c-0.3,0.5-0.5,1-0.5,1.5C1,19,2.3,20.2,3.8,20.2z M5.8,22.6v12v6c0,2,1.6,3.6,3.6,3.6h16.8
	c2,0,3.6-1.6,3.6-3.6v-6v-12H25v12H10.6v-12H5.8z M39.4,22.6v19.2c0,1.3,1.1,2.4,2.4,2.4s2.4-1.1,2.4-2.4V22.6H39.4z"/>
</svg>
